<?xml version="1.0" encoding="utf-8"?>
<!-- Generator: Adobe Illustrator 25.2.0, SVG Export Plug-In . SVG Version: 6.00 Build 0)  -->
<svg version="1.1" xmlns="http://www.w3.org/2000/svg" xmlns:xlink="http://www.w3.org/1999/xlink" x="0px" y="0px"
	 viewBox="0 0 64 64" style="enable-background:new 0 0 64 64;" xml:space="preserve">
<style type="text/css">
	circle, line {
		fill: none;
		stroke: #F1C413;
		stroke-linecap: round;
		stroke-miterlimit: 10;
	}
</style>
<g id="Layer_2">
		<circle cx="32" cy="32" r="9.97"/>
		<line x1="32" y1="18.94" x2="32" y2="14"/>
		<line x1="32" y1="50" x2="32" y2="45.06"/>
		<line x1="45.06" y1="32" x2="50" y2="32"/>
		<line x1="14" y1="32" x2="18.94" y2="32"/>
		<path d="M23,16.41"/>
		<path d="M25.47,20.69"/>
		<path d="M38.53,43.31"/>
		<path d="M41,47.59"/>
		<path d="M47.59,23"/>
		<path d="M43.31,25.47"/>
		<path d="M20.69,38.53"/>
		<path d="M16.41,41"/>
		<line x1="20.69" y1="25.47" x2="18.25" y2="24.06"/>
		<line x1="45.75" y1="39.94" x2="43.31" y2="38.53"/>
		<line x1="38.53" y1="20.69" x2="39.94" y2="18.25"/>
		<line x1="24.06" y1="45.75" x2="25.47" y2="43.31"/>
		<line x1="25.47" y1="20.69" x2="24.06" y2="18.25"/>
		<line x1="39.94" y1="45.75" x2="38.53" y2="43.31"/>
		<line x1="43.31" y1="25.47" x2="45.75" y2="24.06"/>
		<line x1="18.25" y1="39.94" x2="20.69" y2="38.53"/>
</g>
</svg>
