<?xml version="1.0" encoding="utf-8"?>
<!-- Generator: Adobe Illustrator 25.2.0, SVG Export Plug-In . SVG Version: 6.00 Build 0)  -->
<svg version="1.1" xmlns="http://www.w3.org/2000/svg" xmlns:xlink="http://www.w3.org/1999/xlink" x="0px" y="0px"
	 viewBox="0 0 64 64" style="enable-background:new 0 0 64 64;" xml:space="preserve">
<style type="text/css">
	.st0{clip-path:url(#SVGID_2_);}
	.st1{fill:none;stroke:#F1C413;stroke-miterlimit:10;}
	.st2{fill:none;stroke:#F1C413;stroke-linecap:round;stroke-miterlimit:10;}
	.st3{fill:none;stroke:#3A97D3;stroke-miterlimit:10;}

	#actual_sun {
		outline: 1px solid red;
		position: relative;
		transform-origin: 50% 17px;
		position: absolute;
		animation:spin 4s linear infinite;
	}


	@-moz-keyframes spin { 100% { -moz-transform: rotate(360deg); } }
	@-webkit-keyframes spin { 100% { -webkit-transform: rotate(360deg); } }
	@keyframes spin { 100% { -webkit-transform: rotate(360deg); transform:rotate(360deg); }
</style>
<g>
	<g id="sun" style="outline: 1px solid blue; position: static;">
		<g>
			<defs>
				<path id="SVGID_1_" d="M4.5,9.5v35h9.98C12.97,43.3,12,41.49,12,39.47c0-3.3,2.56-6.02,5.89-6.46c0.22-4.2,3.84-7.54,8.29-7.54
					c0.44,0,0.86,0.04,1.28,0.1C29.2,21.15,33.65,18,38.89,18c0.21,0,0.41,0.02,0.61,0.03V9.5H4.5z"/>
			</defs>
			<clipPath id="SVGID_2_">
				<use xlink:href="#SVGID_1_"  style="overflow:visible;"/>
			</clipPath>
			<g class="st0" id="actual_sun">
				<circle class="st1" cx="22.5" cy="27.5" r="9.69"/>
				<line class="st2" x1="22.5" y1="14.8" x2="22.5" y2="10"/>
				<line class="st2" x1="22.5" y1="45" x2="22.5" y2="40.2"/>
				<line class="st2" x1="35.2" y1="27.5" x2="40" y2="27.5"/>
				<line class="st2" x1="5" y1="27.5" x2="9.8" y2="27.5"/>
				<path class="st2" d="M13.75,12.34"/>
				<path class="st2" d="M16.15,16.5"/>
				<path class="st2" d="M28.85,38.5"/>
				<path class="st2" d="M31.25,42.66"/>
				<path class="st2" d="M37.66,18.75"/>
				<path class="st2" d="M33.5,21.15"/>
				<path class="st2" d="M11.5,33.85"/>
				<path class="st2" d="M7.34,36.25"/>
				<line class="st2" x1="11.5" y1="21.15" x2="9.13" y2="19.78"/>
				<line class="st2" x1="35.87" y1="35.22" x2="33.5" y2="33.85"/>
				<line class="st2" x1="28.85" y1="16.5" x2="30.22" y2="14.13"/>
				<line class="st2" x1="14.78" y1="40.87" x2="16.15" y2="38.5"/>
				<line class="st2" x1="16.15" y1="16.5" x2="14.78" y2="14.13"/>
				<line class="st2" x1="30.22" y1="40.87" x2="28.85" y2="38.5"/>
				<line class="st2" x1="33.5" y1="21.15" x2="35.87" y2="19.78"/>
				<line class="st2" x1="9.13" y1="35.22" x2="11.5" y2="33.85"/>
			</g>
		</g>
	</g>
	<g id="cloud">
		<path class="st3" d="M50.94,31.55c0.11-0.62,0.17-1.24,0.17-1.89c0-6.44-5.47-11.67-12.22-11.67c-5.24,0-9.69,3.15-11.43,7.57
			c-0.42-0.06-0.84-0.1-1.28-0.1c-4.45,0-8.07,3.34-8.29,7.54C14.56,33.45,12,36.17,12,39.47c0,3.61,3.06,6.53,6.84,6.53h29.33
			C52.5,46,56,42.66,56,38.53C56,35.34,53.89,32.62,50.94,31.55z"/>
	</g>
</g>
</svg>
