<?xml version="1.0" encoding="utf-8"?>
<!-- Generator: Adobe Illustrator 25.2.0, SVG Export Plug-In . SVG Version: 6.00 Build 0)  -->
<svg version="1.1" xmlns="http://www.w3.org/2000/svg" xmlns:xlink="http://www.w3.org/1999/xlink" x="0px" y="0px"
	 viewBox="0 0 64 64" xml:space="preserve">
	<style type="text/css">

		.cloud {
			fill: none;
			stroke: #3996d2;
		}

		.sun {
			fill: none;
			stroke: #f1c413;
		}

		.rain {
			stroke: #74b9ff;
		}

		.fog {
			stroke: #ffffff;
		}

		.outline {
			fill: none;
			stroke-width: 2px;

		}

		.mask {
			fill: black !important;
			stroke: black !important;
			stroke-width: 5px !important;
		}

		.noscale * {
			stroke-linecap: round;
			vector-effect: non-scaling-stroke;
		}

	</style>

   <defs>
      <symbol id="cloud-big" viewBox="0 0 43 27.73">
         <path vector-effect="non-scaling-stroke" d=" M 37.678 13.447 C 40.495 14.468 42.511 17.065 42.5 20.101 C 42.5 24.044 39.158 27.233 35.034 27.233 L 7.031 27.233 C 3.422 27.233 0.5 24.445 0.5 20.999 C 0.5 17.848 2.944 15.261 6.124 14.831 C 6.334 10.821 9.79 7.632 14.039 7.632 C 14.459 7.632 14.86 7.67 15.261 7.728 C 16.922 3.508 21.171 0.5 26.174 0.5 C 32.618 0.5 37.841 5.493 37.841 11.642 C 37.841 12.263 37.783 12.855 37.678 13.447 L 37.678 13.447 Z "></path>
      </symbol>
      <symbol id="cloud-small" viewBox="0 0 43 27.73">
         <path vector-effect="non-scaling-stroke" d="M5.3,13.4c-0.1-0.6-0.2-1.2-0.2-1.8c0-6.1,5.2-11.1,11.7-11.1 c5,0,9.3,3,10.9,7.2c0.4-0.1,0.8-0.1,1.2-0.1c4.2,0,7.7,3.2,7.9,7.2c3.2,0.4,5.6,3,5.6,6.2c0,3.4-2.9,6.2-6.5,6.2H8 c-4.1,0-7.5-3.2-7.5-7.1C0.5,17.1,2.5,14.5,5.3,13.4L5.3,13.4z"></path>
      </symbol>
      <symbol id="sun" viewBox="0 0 36 36">
         <g transform-origin="center center" id="sunUse">
            <animateTransform attributeName="transform" type="rotate" from="0" to="360" dur="30s" repeatCount="indefinite"></animateTransform>
            <circle vector-effect="non-scaling-stroke" id="sun_orb" cx="18" cy="18" r="9"></circle>
            <g transform-origin="center">
               <g transform-origin="center" transform="rotate(0)">
                  <line vector-effect="non-scaling-stroke" transform="translate(30 18)" x1="0" y1="0" x2="5" y2="0">
                     <animateTransform attributeName="transform" type="scale" additive="sum" values="1 1; .2 1; 1 1" begin="0s" dur="2s" repeatCount="indefinite"></animateTransform>
                  </line>
               </g>
               <g transform-origin="center" transform="rotate(30)">
                  <line vector-effect="non-scaling-stroke" transform="translate(30 18)" x1="0" y1="0" x2="5" y2="0">
                     <animateTransform attributeName="transform" type="scale" additive="sum" values="1 1; .2 1; 1 1" begin="-1s" dur="2s" repeatCount="indefinite"></animateTransform>
                  </line>
               </g>
               <g transform-origin="center" transform="rotate(60)">
                  <line vector-effect="non-scaling-stroke" transform="translate(30 18)" x1="0" y1="0" x2="5" y2="0">
                     <animateTransform attributeName="transform" type="scale" additive="sum" values="1 1; .2 1; 1 1" begin="0s" dur="2s" repeatCount="indefinite"></animateTransform>
                  </line>
               </g>
               <g transform-origin="center" transform="rotate(90)">
                  <line vector-effect="non-scaling-stroke" transform="translate(30 18)" x1="0" y1="0" x2="5" y2="0">
                     <animateTransform attributeName="transform" type="scale" additive="sum" values="1 1; .2 1; 1 1" begin="-1s" dur="2s" repeatCount="indefinite"></animateTransform>
                  </line>
               </g>
               <g transform-origin="center" transform="rotate(120)">
                  <line vector-effect="non-scaling-stroke" transform="translate(30 18)" x1="0" y1="0" x2="5" y2="0">
                     <animateTransform attributeName="transform" type="scale" additive="sum" values="1 1; .2 1; 1 1" begin="0s" dur="2s" repeatCount="indefinite"></animateTransform>
                  </line>
               </g>
               <g transform-origin="center" transform="rotate(150)">
                  <line vector-effect="non-scaling-stroke" transform="translate(30 18)" x1="0" y1="0" x2="5" y2="0">
                     <animateTransform attributeName="transform" type="scale" additive="sum" values="1 1; .2 1; 1 1" begin="-1s" dur="2s" repeatCount="indefinite"></animateTransform>
                  </line>
               </g>
               <g transform-origin="center" transform="rotate(180)">
                  <line vector-effect="non-scaling-stroke" transform="translate(30 18)" x1="0" y1="0" x2="5" y2="0">
                     <animateTransform attributeName="transform" type="scale" additive="sum" values="1 1; .2 1; 1 1" begin="0s" dur="2s" repeatCount="indefinite"></animateTransform>
                  </line>
               </g>
               <g transform-origin="center" transform="rotate(210)">
                  <line vector-effect="non-scaling-stroke" transform="translate(30 18)" x1="0" y1="0" x2="5" y2="0">
                     <animateTransform attributeName="transform" type="scale" additive="sum" values="1 1; .2 1; 1 1" begin="-1s" dur="2s" repeatCount="indefinite"></animateTransform>
                  </line>
               </g>
               <g transform-origin="center" transform="rotate(240)">
                  <line vector-effect="non-scaling-stroke" transform="translate(30 18)" x1="0" y1="0" x2="5" y2="0">
                     <animateTransform attributeName="transform" type="scale" additive="sum" values="1 1; .2 1; 1 1" begin="0s" dur="2s" repeatCount="indefinite"></animateTransform>
                  </line>
               </g>
               <g transform-origin="center" transform="rotate(270)">
                  <line vector-effect="non-scaling-stroke" transform="translate(30 18)" x1="0" y1="0" x2="5" y2="0">
                     <animateTransform attributeName="transform" type="scale" additive="sum" values="1 1; .2 1; 1 1" begin="-1s" dur="2s" repeatCount="indefinite"></animateTransform>
                  </line>
               </g>
               <g transform-origin="center" transform="rotate(300)">
                  <line vector-effect="non-scaling-stroke" transform="translate(30 18)" x1="0" y1="0" x2="5" y2="0">
                     <animateTransform attributeName="transform" type="scale" additive="sum" values="1 1; .2 1; 1 1" begin="0s" dur="2s" repeatCount="indefinite"></animateTransform>
                  </line>
               </g>
               <g transform-origin="center" transform="rotate(330)">
                  <line vector-effect="non-scaling-stroke" transform="translate(30 18)" x1="0" y1="0" x2="5" y2="0">
                     <animateTransform attributeName="transform" type="scale" additive="sum" values="1 1; .2 1; 1 1" begin="-1s" dur="2s" repeatCount="indefinite"></animateTransform>
                  </line>
               </g>
            </g>
         </g>
      </symbol>
      <symbol id="rain" viewBox="0 0 27 22">
         <path stroke-dash-width="3" d="M17,0.8c-2.1,6-4.1,11.7-6.1,17.6" stroke-dasharray="5.25, 33.25" stroke-dashoffset="43.75">
            <animate attributeName="stroke-dashoffset" begin="0s" dur="0.7s" repeatCount="indefinite" from="43.75" to="5.25"></animate>
         </path>
         <path stroke-dash-width="3" d="M10.8,18.4c0,0-2.8-5.1-8.8-2.9" stroke-dasharray="5.25, 19.25" stroke-dashoffset="29.75">
            <animate attributeName="stroke-dashoffset" begin=".6s" dur="0.7s" repeatCount="indefinite" from="29.75" to="5.25"></animate>
            <animate attributeName="opacity" from="1.2" to="0" begin="0.6s" dur="0.7s" repeatCount="indefinite"></animate>
         </path>
         <path stroke-dash-width="1" d="M11,19c0,0,4.9-3.3,7.7,1.7" stroke-dasharray="1.75, 17.5" stroke-dashoffset="21">
            <animate attributeName="stroke-dashoffset" begin=".6s" dur="0.7s" repeatCount="indefinite" from="21" to="1.75"></animate>
            <animate attributeName="opacity" from="1.2" to="0" begin="0.6s" dur="0.7s" repeatCount="indefinite"></animate>
         </path>
         <path stroke-dash-width="1" d="M11,19c0,0-5-3-9,2" stroke-dasharray="1.75, 19.25" stroke-dashoffset="22.75">
            <animate attributeName="stroke-dashoffset" begin=".6s" dur="0.7s" repeatCount="indefinite" from="22.75" to="1.75"></animate>
            <animate attributeName="opacity" from="1.2" to="0" begin="0.6s" dur="0.7s" repeatCount="indefinite"></animate>
         </path>
         <path stroke-dash-width="1" d="M11,19c0,0,4.8-5.7,10.5-2" stroke-dasharray="1.75, 21" stroke-dashoffset="24.5">
            <animate attributeName="stroke-dashoffset" begin=".6s" dur="0.7s" repeatCount="indefinite" from="24.5" to="1.75"></animate>
            <animate attributeName="opacity" from="1.2" to="0" begin="0.6s" dur="0.7s" repeatCount="indefinite"></animate>
         </path>
      </symbol>
      <symbol id="fog" viewBox="0 0 55 3">
         <path stroke-dash-width="30" d="M0.5,0.99c2.45,0,2.45,1,4.91,1c2.45,0,2.45-1,4.9-1c2.45,0,2.45,1,4.91,1c2.45,0,2.45-1,4.91-1 c2.45,0,2.45,1,4.91,1c2.45,0,2.45-1,4.91-1c2.45,0,2.45,1,4.91,1c2.45,0,2.45-1,4.91-1c2.46,0,2.46,1,4.91,1c2.46,0,2.46-1,4.91-1 s2.46,1,4.91,1"></path>
      </symbol>
      <mask id="mask_cloud-big">
         <rect x="0" y="0" width="64" height="64" fill="#ffffff"></rect>
      </mask>
      <mask id="mask_sun">
         <rect x="0" y="0" width="64" height="64" fill="#ffffff"></rect>
         <use width="44" height="28" x="8" y="11" href="#cloud-big" class="cloud outline mask"></use>
      </mask>
   </defs>
   <use id="use_cloud-big" width="44" height="28" x="12" y="17" href="#cloud-big" class="cloud outline" data-masks="['rain-1', 'rain-2', 'rain-3', 'rain-4']" mask="url(#mask_cloud-big)"></use>
   <use id="use_sun" href="#sun" class="sun outline" width="35" height="35" x="4" y="6" data-masks="['cloud-big']" mask="url(#mask_sun)"></use>
</svg>