<?xml version="1.0" encoding="utf-8"?>
<!-- Generator: Adobe Illustrator 25.2.0, SVG Export Plug-In . SVG Version: 6.00 Build 0)  -->
<svg version="1.1" id="Layer_1" xmlns="http://www.w3.org/2000/svg" xmlns:xlink="http://www.w3.org/1999/xlink" x="0px" y="0px"
	 viewBox="0 0 64 64" style="enable-background:new 0 0 64 64;" xml:space="preserve">
<style type="text/css">
	.st0{fill:none;stroke:#868686;stroke-miterlimit:10;}
	.st1{fill:#FFFFFF;stroke:#3996D2;stroke-miterlimit:10;}
	.st2{fill:#FFFFFF;stroke:#2780BA;stroke-miterlimit:10;}
	.st3{fill:#ECECEC;stroke:#EBF0F1;stroke-linecap:round;stroke-miterlimit:10;}
	.st4{stroke:#009EE2;stroke-linecap:round;stroke-miterlimit:10;}
</style>
<path class="st0" d="M0,64"/>
<path class="st0" d="M64,64"/>
<path class="st0" d="M58,14"/>
<g>
	<path class="st0" d="M0,64"/>
	<path class="st0" d="M64,64"/>
</g>
<path class="st1" d="M11.37,27.44c-0.07-0.43-0.12-0.87-0.12-1.31c0-4.49,3.64-8.13,8.13-8.13c3.48,0,6.45,2.19,7.6,5.27
	c0.28-0.04,0.56-0.07,0.85-0.07c2.96,0,5.37,2.33,5.51,5.25c2.21,0.31,3.91,2.2,3.91,4.5c0,2.51-2.04,4.55-4.55,4.55H13.2
	c-2.87,0-5.2-2.33-5.2-5.2C8,30.08,9.4,28.18,11.37,27.44z"/>
<path class="st2" d="M50.94,31.55c0.11-0.62,0.17-1.24,0.17-1.89c0-6.44-5.47-11.67-12.22-11.67c-5.24,0-9.69,3.15-11.43,7.57
	c-0.42-0.06-0.84-0.1-1.28-0.1c-4.45,0-8.07,3.34-8.29,7.54C14.56,33.45,12,36.17,12,39.47c0,3.61,3.06,6.53,6.84,6.53h29.33
	C52.5,46,56,42.66,56,38.53C56,35.34,53.89,32.62,50.94,31.55z"/>
<line class="st3" x1="42.4" y1="53.5" x2="36.4" y2="53.5"/>
<line class="st3" x1="34.4" y1="53.5" x2="33.4" y2="53.5"/>
<line class="st3" x1="33.4" y1="55.5" x2="39.4" y2="55.5"/>
<line class="st3" x1="41.4" y1="55.5" x2="42.4" y2="55.5"/>
<line class="st4" x1="26.9" y1="50" x2="26.9" y2="54.5"/>
<line class="st4" x1="27.43" y1="50.76" x2="26.9" y2="51.29"/>
<line class="st4" x1="27.77" y1="52.03" x2="26.9" y2="52.91"/>
<line class="st4" x1="26.36" y1="50.76" x2="26.9" y2="51.29"/>
<line class="st4" x1="26.02" y1="52.03" x2="26.9" y2="52.91"/>
<line class="st4" x1="30.79" y1="52.25" x2="26.9" y2="54.5"/>
<line class="st4" x1="30.4" y1="53.09" x2="29.68" y2="52.9"/>
<line class="st4" x1="29.47" y1="54.02" x2="28.28" y2="53.7"/>
<line class="st4" x1="29.87" y1="52.17" x2="29.68" y2="52.9"/>
<line class="st4" x1="28.6" y1="52.51" x2="28.28" y2="53.7"/>
<line class="st4" x1="30.79" y1="56.75" x2="26.9" y2="54.5"/>
<line class="st4" x1="29.87" y1="56.83" x2="29.68" y2="56.1"/>
<line class="st4" x1="28.6" y1="56.49" x2="28.28" y2="55.3"/>
<line class="st4" x1="30.4" y1="55.91" x2="29.68" y2="56.1"/>
<line class="st4" x1="29.47" y1="54.98" x2="28.28" y2="55.3"/>
<line class="st4" x1="26.9" y1="59" x2="26.9" y2="54.5"/>
<line class="st4" x1="26.36" y1="58.24" x2="26.9" y2="57.71"/>
<line class="st4" x1="26.02" y1="56.97" x2="26.9" y2="56.09"/>
<line class="st4" x1="27.43" y1="58.24" x2="26.9" y2="57.71"/>
<line class="st4" x1="27.77" y1="56.97" x2="26.9" y2="56.09"/>
<line class="st4" x1="23" y1="56.75" x2="26.9" y2="54.5"/>
<line class="st4" x1="23.39" y1="55.91" x2="24.12" y2="56.1"/>
<line class="st4" x1="24.32" y1="54.98" x2="25.52" y2="55.3"/>
<line class="st4" x1="23.92" y1="56.83" x2="24.12" y2="56.1"/>
<line class="st4" x1="25.2" y1="56.49" x2="25.52" y2="55.3"/>
<line class="st4" x1="23" y1="52.25" x2="26.9" y2="54.5"/>
<line class="st4" x1="23.92" y1="52.17" x2="24.12" y2="52.9"/>
<line class="st4" x1="25.2" y1="52.51" x2="25.52" y2="53.7"/>
<line class="st4" x1="23.39" y1="53.09" x2="24.12" y2="52.9"/>
<line class="st4" x1="24.32" y1="54.02" x2="25.52" y2="53.7"/>
</svg>
