<?xml version="1.0" encoding="utf-8"?>
<!-- Generator: Adobe Illustrator 25.2.0, SVG Export Plug-In . SVG Version: 6.00 Build 0)  -->
<svg version="1.1" xmlns="http://www.w3.org/2000/svg" xmlns:xlink="http://www.w3.org/1999/xlink" x="0px" y="0px"
	 viewBox="0 0 64 64" style="enable-background:new 0 0 64 64;" xml:space="preserve">
<style type="text/css">
	.st0{display:none;}
	.st1{display:inline;}
	.st2{fill:#B1B1B1;}
	.st3{fill:none;stroke:#868686;stroke-miterlimit:10;}
	.st4{fill:#ECECEC;stroke:#868686;stroke-miterlimit:10;}
	.st5{fill:#FFFFFF;stroke:#3996D2;stroke-miterlimit:10;}
	.st6{fill:#FFFFFF;stroke:#2780BA;stroke-miterlimit:10;}
	.st7{stroke:#009EE2;stroke-linecap:round;stroke-miterlimit:10;}
	.st8{fill:#ECECEC;stroke:#EBF0F1;stroke-linecap:round;stroke-miterlimit:10;}
</style>
<g id="Layer_1" class="st0">
	<g class="st1">
		<path class="st2" d="M0,0v17v30v17h64V47V17V0H0z M58,47H6V17h52V47z"/>
		<rect class="st3" width="64" height="64"/>
		<rect x="6" y="17" class="st3" width="52" height="30"/>
		<rect x="6" y="14" class="st3" width="52" height="3"/>
		<rect x="6" y="47" class="st3" width="52" height="3"/>
		<rect x="16" y="50" class="st3" width="37" height="9"/>
	</g>
</g>
<g id="Layer_3" class="st0">
	<g class="st1">
		<rect x="13.5" y="28" class="st3" width="42" height="9"/>
		<rect x="30" y="28" class="st4" width="9" height="9"/>
	</g>
	<g class="st1">
		<rect x="13.5" y="50" class="st3" width="42" height="9"/>
		<rect x="30" y="50" class="st4" width="9" height="9"/>
		<rect x="41" y="50" class="st4" width="9" height="9"/>
		<rect x="19" y="50" class="st4" width="9" height="9"/>
	</g>
	<g class="st1">
		<rect x="13.5" y="39" class="st3" width="42" height="9"/>
		<rect x="24.5" y="39" class="st4" width="9" height="9"/>
		<rect x="35.5" y="39" class="st4" width="9" height="9"/>
	</g>
</g>
<g id="Layer_2">
	<path class="st5" d="M11.37,27.44c-0.07-0.43-0.12-0.87-0.12-1.31c0-4.49,3.64-8.13,8.13-8.13c3.48,0,6.45,2.19,7.6,5.27
		c0.28-0.04,0.56-0.07,0.85-0.07c2.96,0,5.37,2.33,5.51,5.25c2.21,0.31,3.91,2.2,3.91,4.5c0,2.51-2.04,4.55-4.55,4.55H13.2
		c-2.87,0-5.2-2.33-5.2-5.2C8,30.08,9.4,28.18,11.37,27.44z"/>
	<path class="st6" d="M50.94,31.55c0.11-0.62,0.17-1.24,0.17-1.89c0-6.44-5.47-11.67-12.22-11.67c-5.24,0-9.69,3.15-11.43,7.57
		c-0.42-0.06-0.84-0.1-1.28-0.1c-4.45,0-8.07,3.34-8.29,7.54C14.56,33.45,12,36.17,12,39.47c0,3.61,3.06,6.53,6.84,6.53h29.33
		C52.5,46,56,42.66,56,38.53C56,35.34,53.89,32.62,50.94,31.55z"/>
	<g>
		<line class="st7" x1="23.5" y1="50" x2="23.5" y2="54.5"/>
		<line class="st7" x1="22.97" y1="50.76" x2="23.5" y2="51.29"/>
		<line class="st7" x1="22.63" y1="52.03" x2="23.5" y2="52.91"/>
		<line class="st7" x1="24.03" y1="50.76" x2="23.5" y2="51.29"/>
		<line class="st7" x1="24.37" y1="52.03" x2="23.5" y2="52.91"/>
	</g>
	<line class="st7" x1="19.6" y1="52.25" x2="23.5" y2="54.5"/>
	<line class="st7" x1="19.99" y1="53.09" x2="20.72" y2="52.9"/>
	<line class="st7" x1="20.92" y1="54.02" x2="22.12" y2="53.7"/>
	<line class="st7" x1="20.53" y1="52.17" x2="20.72" y2="52.9"/>
	<line class="st7" x1="21.8" y1="52.51" x2="22.12" y2="53.7"/>
	<g>
		<line class="st7" x1="19.6" y1="56.75" x2="23.5" y2="54.5"/>
		<line class="st7" x1="20.53" y1="56.83" x2="20.72" y2="56.1"/>
		<line class="st7" x1="21.8" y1="56.49" x2="22.12" y2="55.3"/>
		<line class="st7" x1="19.99" y1="55.91" x2="20.72" y2="56.1"/>
		<line class="st7" x1="20.92" y1="54.98" x2="22.12" y2="55.3"/>
	</g>
	<g>
		<line class="st7" x1="23.5" y1="59" x2="23.5" y2="54.5"/>
		<line class="st7" x1="24.03" y1="58.24" x2="23.5" y2="57.71"/>
		<line class="st7" x1="24.37" y1="56.97" x2="23.5" y2="56.09"/>
		<line class="st7" x1="22.97" y1="58.24" x2="23.5" y2="57.71"/>
		<line class="st7" x1="22.63" y1="56.97" x2="23.5" y2="56.09"/>
	</g>
	<g>
		<line class="st7" x1="27.4" y1="56.75" x2="23.5" y2="54.5"/>
		<line class="st7" x1="27.01" y1="55.91" x2="26.28" y2="56.1"/>
		<line class="st7" x1="26.08" y1="54.98" x2="24.88" y2="55.3"/>
		<line class="st7" x1="26.47" y1="56.83" x2="26.28" y2="56.1"/>
		<line class="st7" x1="25.2" y1="56.49" x2="24.88" y2="55.3"/>
	</g>
	<g>
		<line class="st7" x1="27.4" y1="52.25" x2="23.5" y2="54.5"/>
		<line class="st7" x1="26.47" y1="52.17" x2="26.28" y2="52.9"/>
		<line class="st7" x1="25.2" y1="52.51" x2="24.88" y2="53.7"/>
		<line class="st7" x1="27.01" y1="53.09" x2="26.28" y2="52.9"/>
		<line class="st7" x1="26.08" y1="54.02" x2="24.88" y2="53.7"/>
	</g>
	<g>
		<line class="st8" x1="41" y1="53.5" x2="47" y2="53.5"/>
		<line class="st8" x1="49" y1="53.5" x2="50" y2="53.5"/>
		<line class="st8" x1="50" y1="55.5" x2="44" y2="55.5"/>
		<line class="st8" x1="42" y1="55.5" x2="41" y2="55.5"/>
	</g>
	<g>
		<line class="st7" x1="34.5" y1="50" x2="34.5" y2="54.5"/>
		<line class="st7" x1="33.97" y1="50.76" x2="34.5" y2="51.29"/>
		<line class="st7" x1="33.63" y1="52.03" x2="34.5" y2="52.91"/>
		<line class="st7" x1="35.03" y1="50.76" x2="34.5" y2="51.29"/>
		<line class="st7" x1="35.37" y1="52.03" x2="34.5" y2="52.91"/>
	</g>
	<line class="st7" x1="30.6" y1="52.25" x2="34.5" y2="54.5"/>
	<line class="st7" x1="30.99" y1="53.09" x2="31.72" y2="52.9"/>
	<line class="st7" x1="31.92" y1="54.02" x2="33.12" y2="53.7"/>
	<line class="st7" x1="31.53" y1="52.17" x2="31.72" y2="52.9"/>
	<line class="st7" x1="32.8" y1="52.51" x2="33.12" y2="53.7"/>
	<g>
		<line class="st7" x1="30.6" y1="56.75" x2="34.5" y2="54.5"/>
		<line class="st7" x1="31.53" y1="56.83" x2="31.72" y2="56.1"/>
		<line class="st7" x1="32.8" y1="56.49" x2="33.12" y2="55.3"/>
		<line class="st7" x1="30.99" y1="55.91" x2="31.72" y2="56.1"/>
		<line class="st7" x1="31.92" y1="54.98" x2="33.12" y2="55.3"/>
	</g>
	<g>
		<line class="st7" x1="34.5" y1="59" x2="34.5" y2="54.5"/>
		<line class="st7" x1="35.03" y1="58.24" x2="34.5" y2="57.71"/>
		<line class="st7" x1="35.37" y1="56.97" x2="34.5" y2="56.09"/>
		<line class="st7" x1="33.97" y1="58.24" x2="34.5" y2="57.71"/>
		<line class="st7" x1="33.63" y1="56.97" x2="34.5" y2="56.09"/>
	</g>
	<g>
		<line class="st7" x1="38.4" y1="56.75" x2="34.5" y2="54.5"/>
		<line class="st7" x1="38.01" y1="55.91" x2="37.28" y2="56.1"/>
		<line class="st7" x1="37.08" y1="54.98" x2="35.88" y2="55.3"/>
		<line class="st7" x1="37.47" y1="56.83" x2="37.28" y2="56.1"/>
		<line class="st7" x1="36.2" y1="56.49" x2="35.88" y2="55.3"/>
	</g>
	<g>
		<line class="st7" x1="38.4" y1="52.25" x2="34.5" y2="54.5"/>
		<line class="st7" x1="37.47" y1="52.17" x2="37.28" y2="52.9"/>
		<line class="st7" x1="36.2" y1="52.51" x2="35.88" y2="53.7"/>
		<line class="st7" x1="38.01" y1="53.09" x2="37.28" y2="52.9"/>
		<line class="st7" x1="37.08" y1="54.02" x2="35.88" y2="53.7"/>
	</g>
</g>
</svg>
