<?xml version="1.0" encoding="utf-8"?>
<!-- Generator: Adobe Illustrator 25.2.0, SVG Export Plug-In . SVG Version: 6.00 Build 0)  -->
<svg version="1.1" xmlns="http://www.w3.org/2000/svg" xmlns:xlink="http://www.w3.org/1999/xlink" x="0px" y="0px"
	 viewBox="0 0 64 64" style="enable-background:new 0 0 64 64;" xml:space="preserve">
<style type="text/css">
	.st0{display:none;}
	.st1{display:inline;fill:#B1B1B1;}
	.st2{display:inline;fill:none;stroke:#868686;stroke-miterlimit:10;}
	.st3{display:inline;}
	.st4{fill:none;stroke:#868686;stroke-miterlimit:10;}
	.st5{fill:#ECECEC;stroke:#868686;stroke-miterlimit:10;}
	.st6{fill:#FFFFFF;stroke:#3996D2;stroke-miterlimit:10;}
	.st7{fill:#F1C40F;stroke:#F39C12;stroke-miterlimit:10;}
	.st8{fill:#F1C40F;stroke:#F39C12;stroke-linecap:round;stroke-miterlimit:10;}
	.st9{fill:#FFFFFF;stroke:#2780BA;stroke-miterlimit:10;}
	.st10{fill:none;stroke:#3997D3;stroke-linecap:round;stroke-linejoin:round;stroke-miterlimit:10;}
</style>
<g id="Layer_1" class="st0">
	<path class="st1" d="M0,0v17v30v17h64V47V17V0H0z M58,47H6V17h52V47z"/>
	<rect class="st2" width="64" height="64"/>
	<rect x="6" y="17" class="st2" width="52" height="30"/>
	<rect x="6" y="14" class="st2" width="52" height="3"/>
	<rect x="6" y="47" class="st2" width="52" height="3"/>
	<rect x="13" y="50" class="st2" width="42" height="9"/>
</g>
<g id="Layer_2" class="st0">
	<g class="st3">
		<rect x="13" y="50" class="st4" width="42" height="9"/>
		<rect x="29.5" y="50" class="st5" width="9" height="9"/>
	</g>
</g>
<g id="Layer_3">
	<path class="st6" d="M10.42,31.75c-0.05-0.31-0.08-0.62-0.08-0.95c0-3.23,2.62-5.85,5.85-5.85c2.51,0,4.64,1.58,5.47,3.8
		c0.2-0.03,0.4-0.05,0.61-0.05c2.13,0,3.87,1.68,3.97,3.78c1.59,0.22,2.82,1.59,2.82,3.24c0,1.81-1.47,3.28-3.28,3.28H11.75
		C9.68,39,8,37.32,8,35.25C8,33.65,9.01,32.29,10.42,31.75z"/>
	<g>
		<circle class="st7" cx="24.15" cy="26.28" r="6.37"/>
		<line class="st8" x1="24.15" y1="17.94" x2="24.15" y2="14.78"/>
		<line class="st8" x1="24.15" y1="37.78" x2="24.15" y2="34.63"/>
		<line class="st8" x1="32.49" y1="26.28" x2="35.65" y2="26.28"/>
		<line class="st8" x1="12.65" y1="26.28" x2="15.8" y2="26.28"/>
		<path class="st8" d="M18.4,16.32"/>
		<path class="st8" d="M19.97,19.06"/>
		<path class="st8" d="M28.32,33.51"/>
		<path class="st8" d="M29.9,36.24"/>
		<path class="st8" d="M34.1,20.53"/>
		<path class="st8" d="M31.37,22.11"/>
		<path class="st8" d="M16.92,30.45"/>
		<path class="st8" d="M14.19,32.03"/>
		<line class="st8" x1="16.92" y1="22.11" x2="15.36" y2="21.21"/>
		<line class="st8" x1="32.93" y1="31.36" x2="31.37" y2="30.45"/>
		<line class="st8" x1="28.32" y1="19.06" x2="29.22" y2="17.49"/>
		<line class="st8" x1="19.07" y1="35.07" x2="19.97" y2="33.51"/>
		<line class="st8" x1="19.97" y1="19.06" x2="19.07" y2="17.49"/>
		<line class="st8" x1="29.22" y1="35.07" x2="28.32" y2="33.51"/>
		<line class="st8" x1="31.37" y1="22.11" x2="32.93" y2="21.21"/>
		<line class="st8" x1="15.36" y1="31.36" x2="16.92" y2="30.45"/>
	</g>
	<path class="st9" d="M51.28,31.9c0.1-0.6,0.16-1.21,0.16-1.84c0-6.29-5.1-11.39-11.39-11.39c-4.88,0-9.03,3.08-10.65,7.39
		c-0.39-0.06-0.79-0.1-1.19-0.1c-4.15,0-7.52,3.26-7.72,7.36C17.39,33.75,15,36.4,15,39.62c0,3.52,2.86,6.38,6.38,6.38h27.33
		c4.03,0,7.29-3.26,7.29-7.29C56,35.59,54.04,32.94,51.28,31.9z"/>
	<line class="st10" x1="36.83" y1="51.67" x2="36.83" y2="52.67"/>
	<line class="st10" x1="31.33" y1="51.67" x2="31.33" y2="54.67"/>
	<line class="st10" x1="31.33" y1="56.67" x2="31.33" y2="57.67"/>
	<line class="st10" x1="36.83" y1="54.67" x2="36.83" y2="57.67"/>
</g>
</svg>
