<?xml version="1.0" encoding="utf-8"?>
<!-- Generator: Adobe Illustrator 25.2.0, SVG Export Plug-In . SVG Version: 6.00 Build 0)  -->
<svg version="1.1" xmlns="http://www.w3.org/2000/svg" xmlns:xlink="http://www.w3.org/1999/xlink" x="0px" y="0px"
	 viewBox="0 0 64 64" style="enable-background:new 0 0 64 64;" xml:space="preserve">
<style type="text/css">
	.st0{display:none;}
	.st1{display:inline;fill:#B1B1B1;}
	.st2{display:inline;fill:none;stroke:#868686;stroke-miterlimit:10;}
	
		.st3{display:inline;fill:none;stroke:#ECF0F1;stroke-width:0.25;stroke-linecap:round;stroke-linejoin:round;stroke-miterlimit:10;}
	.st4{display:inline;}
	.st5{fill:none;stroke:#868686;stroke-miterlimit:10;}
	.st6{fill:#ECECEC;stroke:#868686;stroke-miterlimit:10;}
	.st7{fill:none;stroke:#3997D3;stroke-linecap:round;stroke-linejoin:round;stroke-miterlimit:10;}
	.st8{fill:#FFFFFF;stroke:#3996D2;stroke-miterlimit:10;}
	.st9{fill:#FFFFFF;stroke:#2780BA;stroke-miterlimit:10;}
</style>
<g id="Layer_1" class="st0">
	<path class="st1" d="M0,0v17v30v17h64V47V17V0H0z M58,47H6V17h52V47z"/>
	<rect class="st2" width="64" height="64"/>
	<rect x="6" y="17" class="st2" width="52" height="30"/>
	<rect x="6" y="14" class="st2" width="52" height="3"/>
	<rect x="6" y="47" class="st2" width="52" height="3"/>
	<rect x="13" y="50" class="st2" width="42" height="9"/>
	<rect class="st3" width="64" height="64"/>
</g>
<g id="Layer_2" class="st0">
	<g class="st4">
		<rect x="13" y="50" class="st5" width="42" height="9"/>
		<rect x="29.5" y="50" class="st6" width="9" height="9"/>
	</g>
	<g class="st4">
		<rect x="13" y="50" class="st5" width="42" height="9"/>
		<rect x="24" y="50" class="st6" width="9" height="9"/>
		<rect x="35" y="50" class="st6" width="9" height="9"/>
	</g>
</g>
<g id="Layer_3">
	<g>
		<line class="st7" x1="42.25" y1="51.67" x2="42.25" y2="52.67"/>
		<line class="st7" x1="36.75" y1="51.67" x2="36.75" y2="54.67"/>
		<line class="st7" x1="36.75" y1="56.67" x2="36.75" y2="57.67"/>
		<line class="st7" x1="42.25" y1="54.67" x2="42.25" y2="57.67"/>
	</g>
	<path class="st8" d="M11.74,27.53c-0.07-0.43-0.12-0.87-0.12-1.31c0-4.49,3.64-8.13,8.13-8.13c3.48,0,6.45,2.19,7.6,5.27
		c0.28-0.04,0.56-0.07,0.85-0.07c2.96,0,5.37,2.33,5.51,5.25c2.21,0.31,3.91,2.2,3.91,4.5c0,2.51-2.04,4.55-4.55,4.55h-19.5
		c-2.87,0-5.2-2.33-5.2-5.2C8.38,30.16,9.78,28.27,11.74,27.53z"/>
	<path class="st9" d="M51.31,31.64c0.11-0.62,0.17-1.24,0.17-1.89c0-6.44-5.47-11.67-12.22-11.67c-5.24,0-9.69,3.15-11.43,7.57
		c-0.42-0.06-0.84-0.1-1.28-0.1c-4.45,0-8.07,3.34-8.29,7.54c-3.33,0.45-5.89,3.16-5.89,6.46c0,3.61,3.06,6.53,6.84,6.53h29.33
		c4.32,0,7.82-3.34,7.82-7.47C56.38,35.43,54.27,32.71,51.31,31.64z"/>
	<g>
		<line class="st7" x1="31.25" y1="51.67" x2="31.25" y2="52.67"/>
		<line class="st7" x1="25.75" y1="51.67" x2="25.75" y2="54.67"/>
		<line class="st7" x1="25.75" y1="56.67" x2="25.75" y2="57.67"/>
		<line class="st7" x1="31.25" y1="54.67" x2="31.25" y2="57.67"/>
	</g>
</g>
</svg>
