<?xml version="1.0" encoding="utf-8"?>
<!-- Generator: Adobe Illustrator 25.2.0, SVG Export Plug-In . SVG Version: 6.00 Build 0)  -->
<svg version="1.1" id="Layer_1" xmlns="http://www.w3.org/2000/svg" xmlns:xlink="http://www.w3.org/1999/xlink" x="0px" y="0px"
	 viewBox="0 0 64 64" style="enable-background:new 0 0 64 64;" xml:space="preserve">
<style type="text/css">
	.st0{fill:#FFFFFF;stroke:#2B3E50;stroke-miterlimit:10;}
	.st1{fill:#F1C410;stroke:#F49C13;stroke-miterlimit:10;}
	.st2{fill:#F1C410;stroke:#F49C13;stroke-linecap:round;stroke-miterlimit:10;}
	.st3{fill:#FFFFFF;stroke:#34495E;stroke-miterlimit:10;}
	.st4{fill:#FFFFFF;stroke:#2780BA;stroke-miterlimit:10;}
</style>
<path class="st0" d="M10.88,33.88c-0.06-0.37-0.1-0.75-0.1-1.15c0-3.91,3.11-7.08,6.94-7.08c2.98,0,5.51,1.91,6.5,4.6
	c0.24-0.04,0.48-0.06,0.73-0.06c2.53,0,4.59,2.03,4.71,4.58c1.89,0.27,3.35,1.92,3.35,3.92c0,2.19-1.74,3.97-3.89,3.97H12.44
	C9.99,42.66,8,40.63,8,38.12C8,36.18,9.2,34.53,10.88,33.88z"/>
<g>
	<circle class="st1" cx="24.5" cy="28.5" r="4.71"/>
	<line class="st2" x1="24.5" y1="22.33" x2="24.5" y2="20"/>
	<line class="st2" x1="24.5" y1="37" x2="24.5" y2="34.67"/>
	<line class="st2" x1="30.67" y1="28.5" x2="33" y2="28.5"/>
	<line class="st2" x1="16" y1="28.5" x2="18.33" y2="28.5"/>
	<path class="st2" d="M20.25,21.14"/>
	<path class="st2" d="M21.42,23.16"/>
	<path class="st2" d="M27.58,33.84"/>
	<path class="st2" d="M28.75,35.86"/>
	<path class="st2" d="M31.86,24.25"/>
	<path class="st2" d="M29.84,25.42"/>
	<path class="st2" d="M19.16,31.58"/>
	<path class="st2" d="M17.14,32.75"/>
	<line class="st2" x1="19.16" y1="25.42" x2="18" y2="24.75"/>
	<line class="st2" x1="31" y1="32.25" x2="29.84" y2="31.58"/>
	<line class="st2" x1="27.58" y1="23.16" x2="28.25" y2="22"/>
	<line class="st2" x1="20.75" y1="35" x2="21.42" y2="33.84"/>
	<line class="st2" x1="21.42" y1="23.16" x2="20.75" y2="22"/>
	<line class="st2" x1="28.25" y1="35" x2="27.58" y2="33.84"/>
	<line class="st2" x1="29.84" y1="25.42" x2="31" y2="24.75"/>
	<line class="st2" x1="18" y1="32.25" x2="19.16" y2="31.58"/>
</g>
<path class="st3" d="M51.97,29.29c0.08-0.51,0.14-1.04,0.14-1.57c0-5.37-4.35-9.72-9.72-9.72c-4.17,0-7.71,2.63-9.09,6.31
	c-0.33-0.05-0.67-0.09-1.02-0.09c-3.54,0-6.42,2.78-6.59,6.28C23.04,30.87,21,33.14,21,35.89c0,3.01,2.44,5.44,5.44,5.44h23.33
	c3.44,0,6.22-2.79,6.22-6.22C56,32.45,54.32,30.18,51.97,29.29z"/>
<path class="st4" d="M43.06,38c0.06-0.34,0.09-0.69,0.09-1.04c0-3.55-2.88-6.44-6.44-6.44c-2.76,0-5.1,1.74-6.02,4.18
	c-0.22-0.03-0.44-0.06-0.67-0.06c-2.34,0-4.25,1.84-4.37,4.16c-1.75,0.25-3.1,1.75-3.1,3.57c0,1.99,1.61,3.6,3.6,3.6H41.6
	c2.28,0,4.12-1.84,4.12-4.12C45.72,40.08,44.61,38.58,43.06,38z"/>
</svg>
