<svg id="Layer_1" data-name="Layer 1" xmlns="http://www.w3.org/2000/svg" viewBox="0 0 592.3 592.3"><title>cardboard</title><path d="M296.15,592.3A296.15,296.15,0,0,1,86.74,86.74,296.15,296.15,0,0,1,505.56,505.56,294.19,294.19,0,0,1,296.15,592.3Zm0-580.3C139.47,12,12,139.47,12,296.15S139.47,580.3,296.15,580.3,580.3,452.83,580.3,296.15,452.83,12,296.15,12Z"/><path d="M485,253v-.8c-.8-.8-.8-1.6-1.6-1.6L302.55,141a2.94,2.94,0,0,0-2.4-.8L113,130.55c-3.2,0-4.8,1.6-6.4,4v55.2c0,2.4.8,4,3.2,4.8l46.4,28.8-40.8,26.4a7.26,7.26,0,0,0-2.4,5.6l2.4,82.4c0,1.6.8,4,2.4,4.8L297,461c.8,0,1.6.8,2.4.8a2.94,2.94,0,0,0,2.4-.8L481,342.55c1.6-.8,2.4-3.2,2.4-4.8l2.4-82.4A2.94,2.94,0,0,0,485,253Zm-187.2-100.8,160.8,96-165.6-4-157.6-100.8Zm163.2,108-43.2,27.2H317l-16-31.2Zm-342.4-73.6v-39.2l162.4,104-21.6,20.8Zm49.6,43.2,36,23.2-36.8,24.8-36.8-23.2ZM293.75,445l-167.2-111.2-1.6-68,168.8,104.8Zm6.4-84.8L178.55,285l37.6-24.8,41.6,25.6a6,6,0,0,0,7.2-.8l24.8-24,18.4,36c.8,2.4,3.2,3.2,5.6,3.2h84.8ZM473,333.75,305.75,445v-74.4l168.8-104.8Z"/></svg>