<svg id="Layer_1" data-name="Layer 1" xmlns="http://www.w3.org/2000/svg" viewBox="0 0 592.3 592.3"><title>food_waste</title><path d="M307.33,175.87a6.48,6.48,0,1,0,9.1,9.24h0a6.48,6.48,0,1,0-9.11-9.23Z"/><path d="M452.15,332.41C441,322.54,424.73,319.83,409,317.22l-5.65-1c-6.17-1.08-11.4-1-16,.3l-7.28-12.49,6.89-4a6.48,6.48,0,0,0-6.54-11.2l-6.88,4L366.7,281.1l21.7-12.67a6.48,6.48,0,0,0-6.54-11.2l-21.69,12.66-6.86-11.76,36.5-21.31a6.48,6.48,0,0,0-6.54-11.2l-36.49,21.3-6.85-11.75,21.66-12.65a6.48,6.48,0,1,0-6.53-11.2L333.4,224l-6.93-11.89c12.82-8.59,23.23-19.7,26.28-30.41a6.44,6.44,0,0,0-.63-5,84,84,0,0,0-61.79-41.16c-12-1.59-19.62,2.86-24.11,14a84.05,84.05,0,0,0,5.44,74.11,6.51,6.51,0,0,0,4.08,3,33.28,33.28,0,0,0,7.7.85c9.65,0,21.05-3.43,31.84-8.88l6.92,11.88-21.78,12.71a6.48,6.48,0,0,0,3.28,12.08,6.42,6.42,0,0,0,3.26-.88l21.77-12.71,6.85,11.76L299,274.82a6.48,6.48,0,0,0,6.54,11.2l36.56-21.35L349,276.43l-21.75,12.7a6.49,6.49,0,1,0,6.55,11.2l21.73-12.69,6.86,11.77-6.92,4a6.48,6.48,0,0,0,3.28,12.08,6.42,6.42,0,0,0,3.26-.88l6.91-4,7.28,12.48c-3.41,3.4-6.06,7.93-8.14,13.84q-1,2.73-2,5.48c-5.41,14.93-11,30.36-7.91,44.94,2.19,10.3,8.5,17.44,16.45,18.63a15.32,15.32,0,0,0,2.24.16c4.54,0,12.28-1.94,18.57-13.29,8-14.44,11.45-20.09,15.61-22.22.22-.12.43-.24.63-.37,3.86-2.56,10.83-2.78,27-2.67,15.5.11,20.31-8.16,21.66-11.71,2.87-7.52-.26-16.51-8.16-23.47ZM314.46,204.23l0,0-.08.06c-12.12,7.08-24.62,10.88-32.93,10.15a71.14,71.14,0,0,1-3.14-60.13c2.26-5.64,4.3-6.82,10.35-6a71,71,0,0,1,50.74,32.28c-3.43,7.57-12.84,16.56-24.89,23.63Zm133.73,147c-.79,2.07-4.5,3.38-9.46,3.35-18.26-.11-26.77,0-34,4.64-7.52,4-11.83,11.34-20.71,27.3-2.4,4.33-5.37,6.92-7.55,6.6-1.93-.29-4.53-3.07-5.69-8.5-2.31-10.94,2.64-24.61,7.43-37.82.67-1.87,1.35-3.73,2-5.58,2-5.72,4.29-9,7.62-10.94h0c3.34-1.93,7.31-2.31,13.27-1.27,1.91.34,3.83.66,5.76,1,13.89,2.32,28.26,4.72,36.67,12.13,4.16,3.66,5.31,7.3,4.61,9.12Z"/><path d="M219.28,303.78a29.11,29.11,0,0,1,5.16.46,6.48,6.48,0,0,0,7.27-8.52,28.15,28.15,0,0,1,7.11-29.56,6.47,6.47,0,0,0,1.65-6.83c-4.12-11.8-10.09-17.85-15.86-23.7-7.46-7.57-15.18-15.39-21.35-38.63a6.5,6.5,0,0,0-7.39-4.72l-3.13.55-2.54-23a21.08,21.08,0,0,0,.11-35.31c-4.94-3.46-10.94-5-16-4.07-5.77,1-9.51,3.34-12.06,6.11-3.32-1.71-7.65-2.66-13.36-1.64-5.11.89-10.23,4.38-13.7,9.33a21.07,21.07,0,0,0,12.17,33.12l5.46,22.53-3.12.55a6.49,6.49,0,0,0-5.34,7,109.6,109.6,0,0,1,.29,17.94,6.48,6.48,0,1,0,12.93,1,113.43,113.43,0,0,0,.12-14.12l34.68-6.11c6.83,22.25,15.39,30.93,23,38.67,4.64,4.71,8.45,8.57,11.43,15.28a41.22,41.22,0,0,0-9.4,30.83,41.13,41.13,0,0,0-33.12,19.59,38.42,38.42,0,0,0-3.87-.19,40.72,40.72,0,0,0-20.77,5.63c-9.25-7.7-14.42-18.3-15.77-32.28A6.49,6.49,0,0,0,131,284.85c1.88,19.41,10.21,34.32,24.79,44.34a6.47,6.47,0,0,0,7.61-.2,27.83,27.83,0,0,1,17-5.77,27.35,27.35,0,0,1,6,.66,6.5,6.5,0,0,0,7.31-3.65,28.1,28.1,0,0,1,25.53-16.45ZM181,160a6.5,6.5,0,0,0-4.22,6.81l3.12,28.31-14.34,2.52-6.71-27.68a6.49,6.49,0,0,0-6.31-5,8.39,8.39,0,0,1-8.56-7.23,8.61,8.61,0,0,1,1.77-6.08,9.46,9.46,0,0,1,5.34-4,13.45,13.45,0,0,1,2.35-.24c2.47,0,3.85,1,5.64,3a6.49,6.49,0,0,0,10.82-1.9c1.29-3.17,2.5-4.61,6.61-5.33a9.31,9.31,0,0,1,6.33,1.93,8.7,8.7,0,0,1,3.77,5.15A8.4,8.4,0,0,1,181,160Z"/><path d="M275.56,327.33a41.69,41.69,0,0,1-4.55,2.2c.28-11.37,2-17.35,12-24.48a6.48,6.48,0,0,0-7.53-10.55c-14.83,10.57-17.07,21.32-17.41,35.08a39,39,0,0,1-4.69-2.25c-19.77-10.78-33-4.64-40.59,2.41a6.48,6.48,0,0,0,.07,9.58,25.3,25.3,0,0,1-14.41,44,6.49,6.49,0,0,0-5.83,7.05c2,21.43,11.82,42.88,27.76,60.4a39.07,39.07,0,0,0,12.52,9.2,22.78,22.78,0,0,0,9.3,2.17,18.94,18.94,0,0,0,12.35-4.82c6.49-5.4,13.37-5.4,19.88,0S288,463.58,296.05,460a38.83,38.83,0,0,0,12.51-9.21c2.48-2.72,4.8-5.52,6.9-8.33a6.49,6.49,0,0,0-.73-8.58,25,25,0,0,1-7.84-18.32,25.31,25.31,0,0,1,23.68-25.24,6.49,6.49,0,0,0,6.08-6.37,77.22,77.22,0,0,0-16.19-49.48c-11.16-14.28-27.11-16.81-44.9-7.12Zm18.36,88.21a38.44,38.44,0,0,0,7.88,23.26q-1.37,1.63-2.83,3.23a25.91,25.91,0,0,1-8.19,6.1c-3.66,1.63-5.4,1.46-8.09-.78-11.43-9.48-25.06-9.48-36.47,0-2.68,2.23-4.42,2.39-8.08.77a26.24,26.24,0,0,1-8.21-6.1c-12.58-13.82-20.85-30.32-23.67-47a38.28,38.28,0,0,0,20.66-59.33c4.16-1.69,10.65-2.19,20.22,3,3.67,2,9.22,5,17.32,5s13.63-3,17.3-5c16.08-8.75,24-2.07,28.49,3.73a63.58,63.58,0,0,1,13.31,35.8,38.33,38.33,0,0,0-29.64,37.29Z"/><path d="M141.94,263.23a6.49,6.49,0,1,0-4.57-11.08l0,0a6.49,6.49,0,0,0,4.59,11.06Z"/><path d="M296.15,592.3A296.15,296.15,0,0,1,86.74,86.74,296.15,296.15,0,0,1,505.56,505.56,294.19,294.19,0,0,1,296.15,592.3Zm0-580.3C139.47,12,12,139.47,12,296.15S139.47,580.3,296.15,580.3,580.3,452.83,580.3,296.15,452.83,12,296.15,12Z"/></svg>