<svg id="Layer_1" data-name="Layer 1" xmlns="http://www.w3.org/2000/svg" viewBox="0 0 592.3 592.3"><defs><style>.cls-1{fill:none;}</style></defs><title>non_recyclable</title><path d="M481.7,342.15l-40-82.4a5.68,5.68,0,0,0-3.6-3.2,5.29,5.29,0,0,0-4.8.8l-64,35.6a6.43,6.43,0,0,0-2.4,8.4l31.2,56.4L360.5,361l-.4-12.8a6,6,0,0,0-4.4-5.6,6.3,6.3,0,0,0-6.8,2l-41.6,53.2a6.72,6.72,0,0,0-.4,7.2l37.2,55.2a6.84,6.84,0,0,0,5.2,2.8,2.4,2.4,0,0,0,1.6-.4,6.42,6.42,0,0,0,4.4-5.6l.4-11.2h77.6a6.27,6.27,0,0,0,5.6-3.6l42.8-94.8A5.93,5.93,0,0,0,481.7,342.15Zm-51.6,91.6H350.5a6.5,6.5,0,0,0-6,4.4l-24.4-36.4,28.4-36.4v2.8a6.19,6.19,0,0,0,6.8,6l53.6-4.8,52-3.6Zm36-81.2-54.8,4-30.8-56L433.3,271l36.4,74Z"/><path d="M296.15,592.3A296.15,296.15,0,0,1,86.74,86.74,296.15,296.15,0,0,1,505.56,505.56,294.19,294.19,0,0,1,296.15,592.3Zm0-580.3C139.47,12,12,139.47,12,296.15S139.47,580.3,296.15,580.3,580.3,452.83,580.3,296.15,452.83,12,296.15,12Z"/><path class="cls-1" d="M400.9,199.75a6,6,0,0,1,7.6,8.8L407,210.94,509.9,108,484.45,82.59,382,185l8.47,18.74Z"/><polyline class="cls-1" points="312.47 254.57 82.81 484.23 108.27 509.68"/><polygon class="cls-1" points="252.1 141.75 199.3 204.95 247.7 240.95 286.5 190.15 260.5 141.75 252.1 141.75"/><polygon class="cls-1" points="348.5 141.35 274.1 141.35 298.9 187.35 321.79 228.28 367.2 182.86 348.5 141.35"/><path d="M298.9,187.35l-24.8-46h74.4l18.7,41.51,9.55-9.54L358.5,133a6,6,0,0,0-5.6-3.6h-104a5.7,5.7,0,0,0-4.8,2.4l-58.8,70.4a5.26,5.26,0,0,0-1.2,4.8,9.54,9.54,0,0,0,2.4,4.4L245.3,255a6.32,6.32,0,0,0,8.8-1.2l38.4-52,18.4,32.8-11.6,6a5.64,5.64,0,0,0-3.2,6,6.43,6.43,0,0,0,2.89,4.53l22.8-22.8ZM247.7,241l-48.4-36,52.8-63.2h8.4l26,48.4Z"/><path d="M368.1,267.75a6.84,6.84,0,0,0,5.2-2.8l5.54-8.87-11.67,11.67Z"/><path d="M376.75,173.32,382,185l102.6-102.6c-.66-4.76-1.6-8.63-4.46-12.51Z"/><path d="M509.9,108,407,210.94l-28.17,45.14L520.91,114c-3.37-3.1-6.2-6.08-11-6Z"/><polygon points="364.5 254.95 366.99 250.96 363.29 254.66 364.5 254.95"/><path class="cls-1" d="M213.7,315.35a5.68,5.68,0,0,1,3.6-3.2c1.6-.8,3.2-.4,4.8.4l2.4,1.2-16-43.2-43.6,2a5.51,5.51,0,0,1,.8,7.2l-42,68,31.69,46.93,37.29-37.3Z"/><polygon class="cls-1" points="221.7 326.55 219.88 330.18 222.86 327.21 221.7 326.55"/><path class="cls-1" d="M172.9,443.35l-17.2-26-2.43-3.58L82.81,484.23l25.46,25.45,65.44-65.44A6.78,6.78,0,0,1,172.9,443.35Z"/><polygon class="cls-1" points="173.9 393.14 162.23 404.81 165.3 409.35 173.9 393.14"/><polygon class="cls-1" points="262.9 433.75 262.9 375.35 259.71 375.21 201.17 433.75 262.9 433.75"/><polygon class="cls-1" points="198.9 372.55 173.3 421.35 181.3 433.75 184.2 433.75 243.45 374.5 198.9 372.55"/><path d="M271.48,363.44l-11.77,11.77,3.19.14v58.4H201.17l-12.4,12.4H269.3a6.32,6.32,0,0,0,6.4-6.4v-70.4A6.68,6.68,0,0,0,271.48,363.44Z"/><path d="M123.7,347.75l42-68a5.51,5.51,0,0,0-.8-7.2l43.6-2,16,43.2-2.4-1.2c-1.6-.8-3.2-1.2-4.8-.4a5.68,5.68,0,0,0-3.6,3.2l-21,42,27.2-27.2,1.82-3.63,1.16.66L237.08,313l-19-50.83a6.16,6.16,0,0,0-6-4l-66.8,2.4a6,6,0,0,0-5.6,4.4c-.8,2.4.4,5.2,2.4,6.8l9.2,6.4-40.4,66.4a6.87,6.87,0,0,0,0,6.8l35.51,52.31,9-9Z"/><polygon points="189.7 363.35 192.69 357.38 155.39 394.68 162.23 404.81 173.9 393.14 189.7 363.35"/><path d="M312.47,254.57l-11.57-2.82a5.1,5.1,0,0,1-1.91-.67L237.08,313l4.62,12.36Z"/><path d="M222.86,327.21l-3,3-15,30,1.9.08,26.93-26.92a8.67,8.67,0,0,1-.83-.36Z"/><path d="M153.27,413.77l-6.86-10.11L70.08,480l-.33.34c4.14,1.72,4.91,5.43,9.61,6.81Z"/><path d="M178.1,446.15a6.59,6.59,0,0,1-4.39-1.91l-65.44,65.44,0,0c.28,4.59,3.11,7.94,5.06,11.95l75.46-75.46Z"/><path d="M271.48,363.44l95.69-95.69h-.67l-13.11-3.2-97.78,97.79,14.09.61A6.71,6.71,0,0,1,271.48,363.44Z"/><polygon points="184.2 433.75 201.17 433.75 259.71 375.21 243.45 374.5 184.2 433.75"/><path d="M184.2,433.75l-10.49,10.49a6.59,6.59,0,0,0,4.39,1.91h10.67l12.4-12.4Z"/><polygon points="162.23 404.81 155.39 394.68 146.41 403.66 153.27 413.77 162.23 404.81"/><path d="M259.71,375.21l11.77-11.77a6.71,6.71,0,0,0-1.78-.49l-14.09-.61L243.45,374.5Z"/><polygon points="219.88 330.18 192.69 357.38 189.7 363.35 173.9 393.14 206.81 360.23 204.9 360.15 219.88 330.18"/><path d="M232.9,333a8.67,8.67,0,0,0,.83.36l8-8L237.08,313l-14.22,14.23Z"/><path d="M367.2,182.86l-45.41,45.42,3.51,6.27a6.69,6.69,0,0,1,.4,4.8,5.68,5.68,0,0,1-3.2,3.6l-2.4,1.2,2.24.55,50.14-50.14Z"/><polygon points="372.48 194.56 382.03 185.01 376.75 173.32 367.2 182.86 372.48 194.56"/><path d="M366.5,267.75h.67l11.67-11.67L407,210.94l-40,40-2.49,4-1.21-.29-9.9,9.89"/><path d="M312.47,254.57l9.87-9.87-2.24-.55,2.4-1.2a5.68,5.68,0,0,0,3.2-3.6,6.69,6.69,0,0,0-.4-4.8l-3.51-6.27L299,251.08a5.1,5.1,0,0,0,1.91.67Z"/></svg>