<svg id="Layer_1" data-name="Layer 1" xmlns="http://www.w3.org/2000/svg" viewBox="0 0 592.3 592.3"><title>recyclable</title><path d="M181.49,230.27a5.6,5.6,0,0,1-4.22-5.38v-91a5.6,5.6,0,0,0-5.59-5.6H138.11a5.6,5.6,0,0,0-5.59,5.6v91a5.61,5.61,0,0,1-4.22,5.38A39.16,39.16,0,0,0,99,268.18v190.2a5.6,5.6,0,0,0,5.6,5.6H205.24a5.6,5.6,0,0,0,5.6-5.6V268.18A39.16,39.16,0,0,0,181.49,230.27Zm-37.78-90.76h22.37V150.7H143.71Zm55.94,251.74H110.14V312.93h89.51Zm-89.51,61.54V402.44h89.51v50.35Zm89.51-151H110.14V268.18a28,28,0,0,1,21-27.09,16.78,16.78,0,0,0,12.61-16.2v-63h22.37v63a16.79,16.79,0,0,0,12.61,16.22,28,28,0,0,1,21,27.07Z"/><path d="M333.45,464H238.82a17.24,17.24,0,0,1-17.24-17.24V360.55a17.24,17.24,0,0,1,17.24-17.24h94.63a17.24,17.24,0,0,1,17.24,17.24v86.19A17.24,17.24,0,0,1,333.45,464Zm-94.63-112a8.62,8.62,0,0,0-8.62,8.62v86.19a8.62,8.62,0,0,0,8.62,8.62h94.63a8.62,8.62,0,0,0,8.62-8.62V360.55a8.62,8.62,0,0,0-8.62-8.62Z"/><path d="M332.25,295.39H240a18.45,18.45,0,0,1,0-36.89h92.23a18.45,18.45,0,0,1,0,36.89ZM240,267.13a9.83,9.83,0,0,0,0,19.65h92.23a9.83,9.83,0,0,0,0-19.65Z"/><path d="M332.25,323.66H240a18.45,18.45,0,0,1,0-36.89h92.23a18.45,18.45,0,0,1,0,36.89ZM240,295.39A9.83,9.83,0,0,0,240,315h92.23a9.83,9.83,0,0,0,0-19.65Z"/><path d="M332.25,351.93H240A18.45,18.45,0,0,1,240,315h92.23a18.45,18.45,0,0,1,0,36.89ZM240,323.66a9.83,9.83,0,0,0,0,19.65h92.23a9.83,9.83,0,0,0,0-19.65Z"/><path d="M333.45,267.13H238.82a17.24,17.24,0,0,1-17.24-17.24v-8.65a17.18,17.18,0,0,1,4.5-11.6L261.28,191H311l35.21,38.65a17.24,17.24,0,0,1,4.5,11.61v8.64a17.24,17.24,0,0,1-17.24,17.24Zm-68.37-67.52-32.63,35.83a8.61,8.61,0,0,0-2.25,5.8v8.64a8.61,8.61,0,0,0,8.62,8.62h94.63a8.61,8.61,0,0,0,8.62-8.62v-8.64a8.67,8.67,0,0,0-2.24-5.81l-32.64-35.82Z"/><path d="M318.55,199.61H253.72a8.92,8.92,0,0,1-8.9-8.9V171.2a8.92,8.92,0,0,1,8.9-8.9h64.83a8.91,8.91,0,0,1,8.9,8.9v19.51A8.91,8.91,0,0,1,318.55,199.61Zm-64.83-28.69-.28.28v19.51l65.12.28.28-19.79Z"/><path d="M486.7,256.27q0-.36,0-.72V241.18c0-16-28.71-24.68-55.72-24.68s-55.71,8.65-55.71,24.68v14.37c0,.24,0,.48,0,.72-5.43,4.75-6.64,9.46-6.64,12.73V372.88a4.08,4.08,0,0,0,8.16,0v-90c10.55,8.14,30.4,13.4,54.18,13.4a144.69,144.69,0,0,0,18.85-1.21A4.08,4.08,0,1,0,448.8,287,135.41,135.41,0,0,1,431,288.16c-15.06,0-29.15-2.32-39.69-6.52-9.07-3.62-14.49-8.35-14.49-12.64a7.39,7.39,0,0,1,1.84-4.51c8.35,10.28,30.88,15.74,52.33,15.74s44-5.46,52.34-15.74a7.41,7.41,0,0,1,1.84,4.51c0,5.31-8.23,11.14-21,14.86a4.08,4.08,0,0,0,1.14,8,4.2,4.2,0,0,0,1.15-.16c7.85-2.29,14.16-5.29,18.68-8.77V423.86c0,4.29-5.42,9-14.49,12.64C460.16,440.7,446.07,443,431,443c-31,0-54.17-10.12-54.17-19.16V386.47a4.08,4.08,0,1,0-8.16,0v37.39c0,4.62,2.37,8.91,6.62,12.66v2.79C375.3,455.33,404,464,431,464s55.7-8.65,55.7-24.67v-2.79c4.26-3.75,6.63-8,6.63-12.66V269h0C493.35,265.73,492.13,261,486.7,256.27Zm-8.13-.72c0,6.9-18.09,16.52-47.55,16.52s-47.56-9.62-47.56-16.52V254.5c10.45,7.44,29.39,11.36,47.56,11.36s37.1-3.92,47.55-11.36Zm-42.64,2.05c1.17-3.24,5.79-5.74,11.13-5.74a13.81,13.81,0,0,1,9.23,3.12A106.63,106.63,0,0,1,435.93,257.6Zm42.5-15.43c-9.81-7-27.59-11.3-47.41-11.3a125.32,125.32,0,0,0-20.67,1.66,4.08,4.08,0,0,0,1.34,8.05A116.89,116.89,0,0,1,431,239c17.34,0,33.62,3.71,42,9.32a40.9,40.9,0,0,1-8.33,4.1c-3.16-5.25-9.91-8.75-17.66-8.75-10.32,0-18.53,6-19.48,13.95-18.14-.47-31.57-4.62-38.6-9.3a41.1,41.1,0,0,1,8.68-4.2,4.08,4.08,0,0,0-2.79-7.67,47.24,47.24,0,0,0-11.28,5.68,4.19,4.19,0,0,1-.13-1c0-6.9,18.09-16.52,47.56-16.52s47.55,9.62,47.55,16.52A4.22,4.22,0,0,1,478.43,242.17ZM431,455.82c-25.14,0-42-7-46.4-13.34,11.24,5.41,27.59,8.69,46.4,8.69s35.15-3.28,46.38-8.69C473,448.82,456.15,455.82,431,455.82Z"/><path d="M296.15,592.3A296.15,296.15,0,0,1,86.74,86.74,296.15,296.15,0,0,1,505.56,505.56,294.17,294.17,0,0,1,296.15,592.3Zm0-580.3C139.47,12,12,139.47,12,296.15S139.47,580.3,296.15,580.3,580.3,452.83,580.3,296.15,452.83,12,296.15,12Z"/></svg>