<?xml version="1.0" encoding="utf-8"?>
<!-- Generator: Adobe Illustrator 25.2.0, SVG Export Plug-In . SVG Version: 6.00 Build 0)  -->
<svg version="1.1" xmlns="http://www.w3.org/2000/svg" xmlns:xlink="http://www.w3.org/1999/xlink" x="0px" y="0px"
	 viewBox="0 0 64 64" style="enable-background:new 0 0 64 64;" xml:space="preserve">
<style type="text/css">
	.st0{display:none;}
	.st1{display:inline;}
	.st2{fill:none;stroke:#878787;stroke-miterlimit:10;}
	.st3{fill:#B2B2B2;}
	
		.st4{display:inline;fill:none;stroke:#ECF0F1;stroke-width:0.25;stroke-linecap:round;stroke-linejoin:round;stroke-miterlimit:10;}
	.st5{fill:#F1C411;stroke:#F49C13;stroke-miterlimit:10;}
	.st6{fill:#F1C411;stroke:#F49C13;stroke-linecap:round;stroke-miterlimit:10;}
</style>
<g id="Layer_1" class="st0">
	<g class="st1">
		<rect x="0" y="0" class="st2" width="64" height="64"/>
		<rect x="0" y="0" class="st3" width="64" height="17"/>
		<rect x="0" y="47" class="st3" width="64" height="17"/>
		<rect x="0" y="17" class="st3" width="6" height="30"/>
		<rect x="58" y="17" class="st3" width="6" height="30"/>
		<rect x="6" y="17" class="st2" width="52" height="30"/>
	</g>
	<rect class="st4" width="64" height="64"/>
</g>
<g id="Layer_2">
	<g>
		<circle class="st5" cx="32" cy="32" r="9.97"/>
		<line class="st6" x1="32" y1="18.94" x2="32" y2="14"/>
		<line class="st6" x1="32" y1="50" x2="32" y2="45.06"/>
		<line class="st6" x1="45.06" y1="32" x2="50" y2="32"/>
		<line class="st6" x1="14" y1="32" x2="18.94" y2="32"/>
		<path class="st6" d="M23,16.41"/>
		<path class="st6" d="M25.47,20.69"/>
		<path class="st6" d="M38.53,43.31"/>
		<path class="st6" d="M41,47.59"/>
		<path class="st6" d="M47.59,23"/>
		<path class="st6" d="M43.31,25.47"/>
		<path class="st6" d="M20.69,38.53"/>
		<path class="st6" d="M16.41,41"/>
		<line class="st6" x1="20.69" y1="25.47" x2="18.25" y2="24.06"/>
		<line class="st6" x1="45.75" y1="39.94" x2="43.31" y2="38.53"/>
		<line class="st6" x1="38.53" y1="20.69" x2="39.94" y2="18.25"/>
		<line class="st6" x1="24.06" y1="45.75" x2="25.47" y2="43.31"/>
		<line class="st6" x1="25.47" y1="20.69" x2="24.06" y2="18.25"/>
		<line class="st6" x1="39.94" y1="45.75" x2="38.53" y2="43.31"/>
		<line class="st6" x1="43.31" y1="25.47" x2="45.75" y2="24.06"/>
		<line class="st6" x1="18.25" y1="39.94" x2="20.69" y2="38.53"/>
	</g>
</g>
</svg>
