<?xml version="1.0" encoding="utf-8"?>
<!-- Generator: Adobe Illustrator 25.2.0, SVG Export Plug-In . SVG Version: 6.00 Build 0)  -->
<svg version="1.1" xmlns="http://www.w3.org/2000/svg" xmlns:xlink="http://www.w3.org/1999/xlink" x="0px" y="0px"
	 viewBox="0 0 64 64" style="enable-background:new 0 0 64 64;" xml:space="preserve">
<style type="text/css">
	.st0{display:none;}
	.st1{display:inline;}
	.st2{fill:none;stroke:#878787;stroke-miterlimit:10;}
	.st3{fill:#B2B2B2;}
	
		.st4{display:inline;fill:none;stroke:#ECF0F1;stroke-width:0.25;stroke-linecap:round;stroke-linejoin:round;stroke-miterlimit:10;}
	.st5{fill:none;stroke:#3A97D3;stroke-miterlimit:10;}
	.st6{fill:#EDEDED;stroke:#ECF0F1;stroke-linecap:round;stroke-miterlimit:10;}
</style>
<g id="Layer_1" class="st0">
	<g class="st1">
		<rect x="0" y="0" class="st2" width="64" height="64"/>
		<rect x="0" y="0" class="st3" width="64" height="17"/>
		<rect x="0" y="47" class="st3" width="64" height="17"/>
		<rect x="0" y="17" class="st3" width="6" height="30"/>
		<rect x="58" y="17" class="st3" width="6" height="30"/>
		<rect x="6" y="17" class="st2" width="52" height="30"/>
	</g>
	<rect class="st4" width="64" height="64"/>
</g>
<g id="Layer_2">
	<path class="st5" d="M50.94,31.55c0.11-0.62,0.17-1.24,0.17-1.89c0-6.44-5.47-11.67-12.22-11.67c-5.24,0-9.69,3.15-11.43,7.57
		c-0.42-0.06-0.84-0.1-1.28-0.1c-4.45,0-8.07,3.34-8.29,7.54C14.56,33.45,12,36.17,12,39.47c0,3.61,3.06,6.53,6.84,6.53h29.33
		C52.5,46,56,42.66,56,38.53C56,35.34,53.89,32.62,50.94,31.55z"/>
	<g>
		<line class="st6" x1="28.5" y1="53.5" x2="34.5" y2="53.5"/>
		<line class="st6" x1="36.5" y1="53.5" x2="37.5" y2="53.5"/>
		<line class="st6" x1="37.5" y1="55.5" x2="31.5" y2="55.5"/>
		<line class="st6" x1="29.5" y1="55.5" x2="28.5" y2="55.5"/>
	</g>
	<g>
		<line class="st6" x1="39.5" y1="53.5" x2="45.5" y2="53.5"/>
		<line class="st6" x1="47.5" y1="53.5" x2="48.5" y2="53.5"/>
		<line class="st6" x1="48.5" y1="55.5" x2="42.5" y2="55.5"/>
		<line class="st6" x1="40.5" y1="55.5" x2="39.5" y2="55.5"/>
	</g>
	<g>
		<line class="st6" x1="17.5" y1="53.5" x2="23.5" y2="53.5"/>
		<line class="st6" x1="25.5" y1="53.5" x2="26.5" y2="53.5"/>
		<line class="st6" x1="26.5" y1="55.5" x2="20.5" y2="55.5"/>
		<line class="st6" x1="18.5" y1="55.5" x2="17.5" y2="55.5"/>
	</g>
</g>
</svg>
