<?xml version="1.0" encoding="utf-8"?>
<!-- Generator: Adobe Illustrator 25.2.0, SVG Export Plug-In . SVG Version: 6.00 Build 0)  -->
<svg version="1.1" xmlns="http://www.w3.org/2000/svg" xmlns:xlink="http://www.w3.org/1999/xlink" x="0px" y="0px"
	 viewBox="0 0 64 64" style="enable-background:new 0 0 64 64;" xml:space="preserve">
<style type="text/css">
	.st0{display:none;}
	.st1{display:inline;fill:#B2B2B2;}
	.st2{display:inline;fill:none;stroke:#878787;stroke-miterlimit:10;}
	.st3{display:inline;}
	.st4{fill:none;stroke:#878787;stroke-miterlimit:10;}
	.st5{fill:#EDEDED;stroke:#878787;stroke-miterlimit:10;}
	.st6{stroke:#009FE3;stroke-linecap:round;stroke-miterlimit:10;}
	.st7{fill:none;stroke:#3A97D3;stroke-linecap:round;stroke-linejoin:round;stroke-miterlimit:10;}
	.st8{fill:#FFFFFF;stroke:#3A97D3;stroke-miterlimit:10;}
	.st9{fill:#F1C411;stroke:#F49C13;stroke-miterlimit:10;}
	.st10{fill:#F1C411;stroke:#F49C13;stroke-linecap:round;stroke-miterlimit:10;}
	.st11{fill:#FFFFFF;stroke:#2980BA;stroke-miterlimit:10;}
</style>
<g id="Layer_1" class="st0">
	<path class="st1" d="M0,0v17v30v17h64V47V17V0H0z M58,47H6V17h52V47z"/>
	<rect class="st2" width="64" height="64"/>
	<rect x="6" y="17" class="st2" width="52" height="30"/>
	<rect x="6" y="14" class="st2" width="52" height="3"/>
	<rect x="6" y="47" class="st2" width="52" height="3"/>
	<rect x="12" y="50" class="st2" width="42" height="9"/>
	<g id="Layer_3" class="st3">
	</g>
	<g id="Layer_4" class="st3">
	</g>
	<g class="st3">
		<rect x="12" y="50" class="st4" width="42" height="9"/>
		<rect x="23" y="50" class="st5" width="9" height="9"/>
		<rect x="34" y="50" class="st5" width="9" height="9"/>
	</g>
</g>
<g id="Layer_2">
	<g>
		<line class="st6" x1="27.5" y1="50" x2="27.5" y2="54.5"/>
		<line class="st6" x1="26.97" y1="50.76" x2="27.5" y2="51.29"/>
		<line class="st6" x1="26.63" y1="52.03" x2="27.5" y2="52.91"/>
		<line class="st6" x1="28.03" y1="50.76" x2="27.5" y2="51.29"/>
		<line class="st6" x1="28.37" y1="52.03" x2="27.5" y2="52.91"/>
		<line class="st6" x1="23.6" y1="52.25" x2="27.5" y2="54.5"/>
		<line class="st6" x1="23.99" y1="53.09" x2="24.72" y2="52.9"/>
		<line class="st6" x1="24.92" y1="54.02" x2="26.12" y2="53.7"/>
		<line class="st6" x1="24.53" y1="52.17" x2="24.72" y2="52.9"/>
		<line class="st6" x1="25.8" y1="52.51" x2="26.12" y2="53.7"/>
		<line class="st6" x1="23.6" y1="56.75" x2="27.5" y2="54.5"/>
		<line class="st6" x1="24.53" y1="56.83" x2="24.72" y2="56.1"/>
		<line class="st6" x1="25.8" y1="56.49" x2="26.12" y2="55.3"/>
		<line class="st6" x1="23.99" y1="55.91" x2="24.72" y2="56.1"/>
		<line class="st6" x1="24.92" y1="54.98" x2="26.12" y2="55.3"/>
		<line class="st6" x1="27.5" y1="59" x2="27.5" y2="54.5"/>
		<line class="st6" x1="28.03" y1="58.24" x2="27.5" y2="57.71"/>
		<line class="st6" x1="28.37" y1="56.97" x2="27.5" y2="56.09"/>
		<line class="st6" x1="26.97" y1="58.24" x2="27.5" y2="57.71"/>
		<line class="st6" x1="26.63" y1="56.97" x2="27.5" y2="56.09"/>
		<line class="st6" x1="31.4" y1="56.75" x2="27.5" y2="54.5"/>
		<line class="st6" x1="31.01" y1="55.91" x2="30.28" y2="56.1"/>
		<line class="st6" x1="30.08" y1="54.98" x2="28.88" y2="55.3"/>
		<line class="st6" x1="30.47" y1="56.83" x2="30.28" y2="56.1"/>
		<line class="st6" x1="29.2" y1="56.49" x2="28.88" y2="55.3"/>
		<line class="st6" x1="31.4" y1="52.25" x2="27.5" y2="54.5"/>
		<line class="st6" x1="30.47" y1="52.17" x2="30.28" y2="52.9"/>
		<line class="st6" x1="29.2" y1="52.51" x2="28.88" y2="53.7"/>
		<line class="st6" x1="31.01" y1="53.09" x2="30.28" y2="52.9"/>
		<line class="st6" x1="30.08" y1="54.02" x2="28.88" y2="53.7"/>
	</g>
	<line class="st7" x1="41.33" y1="51.67" x2="41.33" y2="52.67"/>
	<line class="st7" x1="35.83" y1="51.67" x2="35.83" y2="54.67"/>
	<path class="st8" d="M11.37,27.44c-0.07-0.43-0.12-0.87-0.12-1.31c0-4.49,3.64-8.13,8.13-8.13c3.48,0,6.45,2.19,7.6,5.27
		c0.28-0.04,0.56-0.07,0.85-0.07c2.96,0,5.37,2.33,5.51,5.25c2.21,0.31,3.91,2.2,3.91,4.5c0,2.51-2.04,4.55-4.55,4.55H13.2
		c-2.87,0-5.2-2.33-5.2-5.2C8,30.08,9.4,28.18,11.37,27.44z"/>
	<g>
		<circle class="st9" cx="25.5" cy="27.5" r="8.03"/>
		<line class="st10" x1="25.5" y1="16.98" x2="25.5" y2="13"/>
		<line class="st10" x1="25.5" y1="42" x2="25.5" y2="38.02"/>
		<line class="st10" x1="36.02" y1="27.5" x2="40" y2="27.5"/>
		<line class="st10" x1="11" y1="27.5" x2="14.98" y2="27.5"/>
		<line class="st10" x1="16.39" y1="22.24" x2="14.42" y2="21.1"/>
		<line class="st10" x1="36.58" y1="33.9" x2="34.61" y2="32.76"/>
		<line class="st10" x1="30.76" y1="18.39" x2="31.9" y2="16.42"/>
		<line class="st10" x1="19.1" y1="38.58" x2="20.24" y2="36.61"/>
		<line class="st10" x1="20.24" y1="18.39" x2="19.1" y2="16.42"/>
		<line class="st10" x1="31.9" y1="38.58" x2="30.76" y2="36.61"/>
		<line class="st10" x1="34.61" y1="22.24" x2="36.58" y2="21.1"/>
		<line class="st10" x1="14.42" y1="33.9" x2="16.39" y2="32.76"/>
	</g>
	<path class="st11" d="M50.94,31.55c0.11-0.62,0.17-1.24,0.17-1.89c0-6.44-5.47-11.67-12.22-11.67c-5.24,0-9.69,3.15-11.43,7.57
		c-0.42-0.06-0.84-0.1-1.28-0.1c-4.45,0-8.07,3.34-8.29,7.54C14.56,33.45,12,36.17,12,39.47c0,3.61,3.06,6.53,6.84,6.53h29.33
		C52.5,46,56,42.66,56,38.53C56,35.34,53.89,32.62,50.94,31.55z"/>
</g>
</svg>
