<?xml version="1.0" encoding="utf-8"?>
<!-- Generator: Adobe Illustrator 25.2.0, SVG Export Plug-In . SVG Version: 6.00 Build 0)  -->
<svg version="1.1" xmlns="http://www.w3.org/2000/svg" xmlns:xlink="http://www.w3.org/1999/xlink" x="0px" y="0px"
	 viewBox="0 0 64 64" style="enable-background:new 0 0 64 64;" xml:space="preserve">
<style type="text/css">
	.st0{display:none;}
	.st1{display:inline;fill:#B2B2B2;}
	.st2{display:inline;fill:none;stroke:#878787;stroke-miterlimit:10;}
	.st3{display:inline;}
	.st4{fill:none;stroke:#878787;stroke-miterlimit:10;}
	.st5{fill:#EDEDED;stroke:#878787;stroke-miterlimit:10;}
	.st6{fill:none;stroke:#F1C515;stroke-miterlimit:10;}
	.st7{fill:none;stroke:#F1C515;stroke-linecap:round;stroke-miterlimit:10;}
	.st8{fill:#FFFFFF;stroke:#3A97D3;stroke-miterlimit:10;}
	.st9{fill:none;stroke:#3A97D3;stroke-linecap:round;stroke-linejoin:round;stroke-miterlimit:10;}
	.st10{fill:none;stroke:#3A97D3;stroke-miterlimit:10;}
</style>
<g id="Layer_1" class="st0">
	<path class="st1" d="M0,0v17v30v17h64V47V17V0H0z M58,47H6V17h52V47z"/>
	<rect class="st2" width="64" height="64"/>
	<rect x="6" y="17" class="st2" width="52" height="30"/>
	<rect x="6" y="14" class="st2" width="52" height="3"/>
	<rect x="6" y="47" class="st2" width="52" height="3"/>
	<rect x="12" y="50" class="st2" width="42" height="9"/>
	<g id="Layer_3" class="st3">
	</g>
	<g id="Layer_4" class="st3">
	</g>
	<g class="st3">
		<rect x="12" y="50" class="st4" width="42" height="9"/>
		<rect x="23" y="50" class="st5" width="9" height="9"/>
		<rect x="34" y="50" class="st5" width="9" height="9"/>
	</g>
</g>
<g id="Layer_2">
	<g>
		<circle class="st6" cx="22.5" cy="27.5" r="9.69"/>
		<line class="st7" x1="22.5" y1="14.8" x2="22.5" y2="10"/>
		<line class="st7" x1="22.5" y1="45" x2="22.5" y2="40.2"/>
		<line class="st7" x1="35.2" y1="27.5" x2="40" y2="27.5"/>
		<line class="st7" x1="5" y1="27.5" x2="9.8" y2="27.5"/>
		<path class="st7" d="M13.75,12.34"/>
		<path class="st7" d="M16.15,16.5"/>
		<path class="st7" d="M28.85,38.5"/>
		<path class="st7" d="M31.25,42.66"/>
		<path class="st7" d="M37.66,18.75"/>
		<path class="st7" d="M33.5,21.15"/>
		<path class="st7" d="M11.5,33.85"/>
		<path class="st7" d="M7.34,36.25"/>
		<line class="st7" x1="11.5" y1="21.15" x2="9.13" y2="19.78"/>
		<line class="st7" x1="35.87" y1="35.22" x2="33.5" y2="33.85"/>
		<line class="st7" x1="28.85" y1="16.5" x2="30.22" y2="14.13"/>
		<line class="st7" x1="14.78" y1="40.87" x2="16.15" y2="38.5"/>
		<line class="st7" x1="16.15" y1="16.5" x2="14.78" y2="14.13"/>
		<line class="st7" x1="30.22" y1="40.87" x2="28.85" y2="38.5"/>
		<line class="st7" x1="33.5" y1="21.15" x2="35.87" y2="19.78"/>
		<line class="st7" x1="9.13" y1="35.22" x2="11.5" y2="33.85"/>
	</g>
	<path class="st8" d="M50.94,31.55c0.11-0.62,0.17-1.24,0.17-1.89c0-6.44-5.47-11.67-12.22-11.67c-5.24,0-9.69,3.15-11.43,7.57
		c-0.42-0.06-0.84-0.1-1.28-0.1c-4.45,0-8.07,3.34-8.29,7.54C14.56,33.45,12,36.17,12,39.47c0,3.61,3.06,6.53,6.84,6.53h29.33
		C52.5,46,56,42.66,56,38.53C56,35.34,53.89,32.62,50.94,31.55z"/>
	<line class="st9" x1="41.33" y1="51.67" x2="41.33" y2="52.67"/>
	<line class="st9" x1="35.83" y1="51.67" x2="35.83" y2="54.67"/>
	<g>
		<polygon class="st10" points="29.72,54.5 27.5,58.5 25.28,54.5 27.5,50.5 		"/>
		<polyline class="st10" points="27.5,50.5 28.39,54.66 27.5,58.5 		"/>
		<path class="st10" d="M25.28,54.5"/>
	</g>
</g>
</svg>
