<?xml version="1.0" encoding="utf-8"?>
<!-- Generator: Adobe Illustrator 25.2.0, SVG Export Plug-In . SVG Version: 6.00 Build 0)  -->
<svg version="1.1" xmlns="http://www.w3.org/2000/svg" xmlns:xlink="http://www.w3.org/1999/xlink" x="0px" y="0px"
	 viewBox="0 0 64 64" style="enable-background:new 0 0 64 64;" xml:space="preserve">
<style type="text/css">
	.st0{display:none;}
	.st1{display:inline;fill:#B2B2B2;}
	.st2{display:inline;fill:none;stroke:#878787;stroke-miterlimit:10;}
	.st3{display:inline;}
	.st4{fill:none;stroke:#878787;stroke-miterlimit:10;}
	.st5{fill:#EDEDED;stroke:#878787;stroke-miterlimit:10;}
	.st6{fill:#FFFFFF;stroke:#2C3E50;stroke-miterlimit:10;}
	.st7{fill:#F1C515;stroke:#F59C15;stroke-miterlimit:10;}
	.st8{fill:#FFFFFF;stroke:#F59C15;stroke-linecap:round;stroke-miterlimit:10;}
	.st9{fill:#FFFFFF;stroke:#F1C515;stroke-linecap:round;stroke-miterlimit:10;}
	.st10{fill:#FFFFFF;stroke:#35495E;stroke-miterlimit:10;}
	.st11{fill:#FFFFFF;stroke:#2980BA;stroke-miterlimit:10;}
	.st12{fill:#F1C514;stroke:#F49C13;stroke-linejoin:round;stroke-miterlimit:10;}
</style>
<g id="Layer_1" class="st0">
	<path class="st1" d="M0,0v17v30v17h64V47V17V0H0z M58,47H6V17h52V47z"/>
	<rect class="st2" width="64" height="64"/>
	<rect x="6" y="17" class="st2" width="52" height="30"/>
	<rect x="6" y="14" class="st2" width="52" height="3"/>
	<rect x="6" y="47" class="st2" width="52" height="3"/>
	<rect x="12" y="50" class="st2" width="42" height="9"/>
	<g id="Layer_3" class="st3">
	</g>
	<g id="Layer_4" class="st3">
	</g>
	<g class="st3">
		<rect x="12" y="50" class="st4" width="42" height="9"/>
		<rect x="23" y="50" class="st5" width="9" height="9"/>
		<rect x="34" y="50" class="st5" width="9" height="9"/>
	</g>
</g>
<g id="Layer_2">
	<path class="st6" d="M10.42,29.78c-0.05-0.31-0.08-0.62-0.08-0.94c0-3.22,2.61-5.83,5.83-5.83c2.5,0,4.63,1.58,5.46,3.79
		c0.2-0.03,0.4-0.05,0.61-0.05c2.12,0,3.85,1.67,3.96,3.77c1.59,0.22,2.81,1.58,2.81,3.23c0,1.8-1.46,3.27-3.27,3.27h-14
		C9.67,37,8,35.33,8,33.27C8,31.67,9.01,30.31,10.42,29.78z"/>
	<g>
		<circle class="st7" cx="24.5" cy="28.5" r="4.71"/>
		<line class="st8" x1="24.5" y1="22.33" x2="24.5" y2="20"/>
		<line class="st9" x1="24.5" y1="37" x2="24.5" y2="34.67"/>
		<line class="st9" x1="30.67" y1="28.5" x2="33" y2="28.5"/>
		<line class="st8" x1="16" y1="28.5" x2="18.33" y2="28.5"/>
		<path class="st9" d="M20.25,21.14"/>
		<path class="st9" d="M21.42,23.16"/>
		<path class="st9" d="M27.58,33.84"/>
		<path class="st9" d="M28.75,35.86"/>
		<path class="st9" d="M31.86,24.25"/>
		<path class="st9" d="M29.84,25.42"/>
		<path class="st9" d="M19.16,31.58"/>
		<path class="st9" d="M17.14,32.75"/>
		<line class="st8" x1="19.16" y1="25.42" x2="18" y2="24.75"/>
		<line class="st9" x1="31" y1="32.25" x2="29.84" y2="31.58"/>
		<line class="st8" x1="27.58" y1="23.16" x2="28.25" y2="22"/>
		<line class="st9" x1="20.75" y1="35" x2="21.42" y2="33.84"/>
		<line class="st8" x1="21.42" y1="23.16" x2="20.75" y2="22"/>
		<line class="st9" x1="28.25" y1="35" x2="27.58" y2="33.84"/>
		<line class="st9" x1="29.84" y1="25.42" x2="31" y2="24.75"/>
		<line class="st9" x1="18" y1="32.25" x2="19.16" y2="31.58"/>
	</g>
	<path class="st10" d="M51.97,29.29c0.08-0.51,0.14-1.04,0.14-1.57c0-5.37-4.35-9.72-9.72-9.72c-4.17,0-7.71,2.63-9.09,6.31
		c-0.33-0.05-0.67-0.09-1.02-0.09c-3.54,0-6.42,2.78-6.59,6.28C23.04,30.87,21,33.14,21,35.89c0,3.01,2.44,5.44,5.44,5.44h23.33
		c3.44,0,6.22-2.79,6.22-6.22C56,32.45,54.32,30.18,51.97,29.29z"/>
	<path class="st11" d="M16.45,36.78c-0.06-0.39-0.11-0.79-0.11-1.2c0-4.1,3.32-7.42,7.42-7.42c3.18,0,5.89,2,6.94,4.82
		c0.25-0.04,0.51-0.07,0.78-0.07c2.7,0,4.9,2.13,5.03,4.79c2.02,0.28,3.57,2.01,3.57,4.11c0,2.3-1.86,4.16-4.16,4.16H18.13
		c-2.62,0-4.75-2.13-4.75-4.75C13.38,39.18,14.66,37.45,16.45,36.78z"/>
	<polygon class="st12" points="29.18,59 32.09,52.97 28.91,54.7 33.44,41 37.91,41 31,52.07 34.52,51.17 	"/>
</g>
</svg>
