<?xml version="1.0" encoding="utf-8"?>
<!-- Generator: Adobe Illustrator 25.2.0, SVG Export Plug-In . SVG Version: 6.00 Build 0)  -->
<svg version="1.1" xmlns="http://www.w3.org/2000/svg" xmlns:xlink="http://www.w3.org/1999/xlink" x="0px" y="0px"
	 viewBox="0 0 64 64" style="enable-background:new 0 0 64 64;" xml:space="preserve">
<style type="text/css">
	.st0{fill:#FFFFFF;stroke:#3996D2;stroke-miterlimit:10;}
	.st1{fill:none;stroke:#3996D2;stroke-miterlimit:10;}
	.st2{fill:#ECECEC;stroke:#EBF0F1;stroke-linecap:round;stroke-miterlimit:10;}
	.st3{fill:none;}
	.st4{display:none;}
	.st5{display:inline;}
	.st6{fill:none;stroke:#868686;stroke-miterlimit:10;}
	.st7{fill:#ECECEC;stroke:#868686;stroke-miterlimit:10;}
</style>
<g id="Layer_1">
	<path class="st0" d="M50.94,31.55c0.11-0.62,0.17-1.24,0.17-1.89c0-6.44-5.47-11.67-12.22-11.67c-5.24,0-9.69,3.15-11.43,7.57
		c-0.42-0.06-0.84-0.1-1.28-0.1c-4.45,0-8.07,3.34-8.29,7.54C14.56,33.45,12,36.17,12,39.47c0,3.61,3.06,6.53,6.84,6.53h29.33
		C52.5,46,56,42.66,56,38.53C56,35.34,53.89,32.62,50.94,31.55z"/>
	<g>
		<polygon class="st1" points="30.72,54.5 28.5,58.5 26.28,54.5 28.5,50.5 		"/>
		<polyline class="st1" points="28.5,50.5 29.39,54.66 28.5,58.5 		"/>
		<path class="st1" d="M26.28,54.5"/>
		<g>
			<g>
				<line class="st2" x1="35" y1="53.5" x2="41" y2="53.5"/>
				<line class="st2" x1="43" y1="53.5" x2="44" y2="53.5"/>
				<line class="st2" x1="44" y1="55.5" x2="38" y2="55.5"/>
				<line class="st2" x1="36" y1="55.5" x2="35" y2="55.5"/>
			</g>
			<rect x="35" y="50" class="st3" width="9" height="9"/>
		</g>
	</g>
</g>
<g id="Layer_3" class="st4">
	<g class="st5">
		<rect x="13.5" y="28" class="st6" width="42" height="9"/>
		<rect x="30" y="28" class="st7" width="9" height="9"/>
	</g>
	<g class="st5">
		<rect x="13.5" y="50" class="st6" width="42" height="9"/>
		<rect x="30" y="50" class="st7" width="9" height="9"/>
		<rect x="41" y="50" class="st7" width="9" height="9"/>
		<rect x="19" y="50" class="st7" width="9" height="9"/>
	</g>
	<g class="st5">
		<rect x="13.5" y="39" class="st6" width="42" height="9"/>
		<rect x="24.5" y="39" class="st7" width="9" height="9"/>
		<rect x="35.5" y="39" class="st7" width="9" height="9"/>
	</g>
</g>
<g id="Layer_2">
</g>
</svg>
