<?xml version="1.0" encoding="utf-8"?>
<!-- Generator: Adobe Illustrator 25.2.0, SVG Export Plug-In . SVG Version: 6.00 Build 0)  -->
<svg version="1.1" id="Layer_1" xmlns="http://www.w3.org/2000/svg" xmlns:xlink="http://www.w3.org/1999/xlink" x="0px" y="0px"
	 viewBox="0 0 51.2 47.7" style="enable-background:new 0 0 51.2 47.7;" xml:space="preserve">
<style type="text/css">
	.st0{fill:none;stroke:#0000FF;stroke-miterlimit:10;}
	.st1{fill:none;stroke:#00FF00;stroke-miterlimit:10;}
	.st2{fill:none;stroke:#FF0000;stroke-miterlimit:10;}
</style>
<path class="st0" d="M32.11,23.85c0,1.01-2.91,1.82-6.5,1.82c-3.59,0-6.5-0.82-6.5-1.82c0-1.01,2.91-1.82,6.5-1.82
	C29.2,22.03,32.11,22.84,32.11,23.85"/>
<path class="st1" d="M22.36,18.22c0.97-0.56,3.21,1.5,5.01,4.61c1.79,3.11,2.46,6.08,1.49,6.64c-0.97,0.56-3.21-1.5-5.01-4.61
	C22.05,21.76,21.38,18.78,22.36,18.22"/>
<path class="st2" d="M22.36,29.48c-0.97-0.56-0.3-3.54,1.49-6.64c1.79-3.11,4.04-5.17,5.01-4.61c0.97,0.56,0.3,3.54-1.49,6.64
	C25.57,27.98,23.33,30.04,22.36,29.48"/>
</svg>
