<svg 
    xmlns="http://www.w3.org/2000/svg" 
    xmlns:xlink="http://www.w3.org/1999/xlink" 
    style="isolation:isolate" 
    viewBox="0 0 43 27.73" 
>
<style>
    path {
        stroke: #3498db;
        fill: none;
    }
</style>
    <symbol id="cloudSymbol" viewBox="0 0 43 27.73"  >
        <path vector-effect="non-scaling-stroke" d=" M 37.678 13.447 C 40.495 14.468 42.511 17.065 42.5 20.101 C 42.5 24.044 39.158 27.233 35.034 27.233 L 7.031 27.233 C 3.422 27.233 0.5 24.445 0.5 20.999 C 0.5 17.848 2.944 15.261 6.124 14.831 C 6.334 10.821 9.79 7.632 14.039 7.632 C 14.459 7.632 14.86 7.67 15.261 7.728 C 16.922 3.508 21.171 0.5 26.174 0.5 C 32.618 0.5 37.841 5.493 37.841 11.642 C 37.841 12.263 37.783 12.855 37.678 13.447 L 37.678 13.447 Z "/>
    </symbol>

    <symbol id="cloudFlippedSymbol" viewBox="0 0 43 27.73">
        <path vector-effect="non-scaling-stroke" class="st0" d="M5.3,13.4c-0.1-0.6-0.2-1.2-0.2-1.8c0-6.1,5.2-11.1,11.7-11.1 c5,0,9.3,3,10.9,7.2c0.4-0.1,0.8-0.1,1.2-0.1c4.2,0,7.7,3.2,7.9,7.2c3.2,0.4,5.6,3,5.6,6.2c0,3.4-2.9,6.2-6.5,6.2H8 c-4.1,0-7.5-3.2-7.5-7.1C0.5,17.1,2.5,14.5,5.3,13.4L5.3,13.4z"/>
    </symbol>

    <use href="#cloudSymbol" />
</svg>