<svg 
    xmlns="http://www.w3.org/2000/svg" 
    xmlns:xlink="http://www.w3.org/1999/xlink" 
    style="isolation:isolate" 
    viewBox="0 0 43 27.73" 
>
<style>
    path {
        stroke: #F1C413;
        fill: none;
    }
</style>
    <symbol id="cloudSymbol" viewBox="0 0 43 27.73"  >
        <path d=" M 37.678 13.447 C 40.495 14.468 42.511 17.065 42.5 20.101 C 42.5 24.044 39.158 27.233 35.034 27.233 L 7.031 27.233 C 3.422 27.233 0.5 24.445 0.5 20.999 C 0.5 17.848 2.944 15.261 6.124 14.831 C 6.334 10.821 9.79 7.632 14.039 7.632 C 14.459 7.632 14.86 7.67 15.261 7.728 C 16.922 3.508 21.171 0.5 26.174 0.5 C 32.618 0.5 37.841 5.493 37.841 11.642 C 37.841 12.263 37.783 12.855 37.678 13.447 L 37.678 13.447 Z "/>
    </symbol>


    <use href="#cloudSymbol" />


</svg>