<?xml version="1.0" encoding="utf-8"?>
<!-- Generator: Adobe Illustrator 25.2.0, SVG Export Plug-In . SVG Version: 6.00 Build 0)  -->
<svg version="1.1" id="Layer_1" xmlns="http://www.w3.org/2000/svg" xmlns:xlink="http://www.w3.org/1999/xlink" x="0px" y="0px"
	 viewBox="0 0 27.47 22.19" xml:space="preserve">
<style type="text/css">
path {
    stroke: black;
}
</style>

<symbol id="rainSymbol" viewBox="0 0 27.47 22.19" >
    <!-- <path class="st0" d="M11,19c0,0,7.94-9.06,16-1"/> -->
    <path vector-effect="non-scaling-stroke" stroke-linecap="round" stroke-width="1" class="st0 animate testpath testpath-1" d="M11,0c0,6.33,0,12.67,0,19"/>
    <!-- <path class="st0" d="M11,19c0,0-5-3-9,2"/> -->
    <!-- <path class="st0" d="M11,19c0,0,5-2,7,3"/> -->
    <!-- <path class="st0" d="M0.49,15.17C8.49,13.17,11,19,11,19"/> -->
</symbol>

<symbol id="rainSymbol2" viewBox="0 0 27.47 22.19" >
    <!-- <path class="st0" d="M11,19c0,0,7.94-9.06,16-1"/> -->
    <path stroke-linecap="round" class="st0 testpath animate testpath-2" d="M11,0c0,6.33,0,12.67,0,19"/>
    <!-- <path class="st0" d="M11,19c0,0-5-3-9,2"/> -->
    <!-- <path class="st0" d="M11,19c0,0,5-2,7,3"/> -->
    <!-- <path class="st0" d="M0.49,15.17C8.49,13.17,11,19,11,19"/> -->
</symbol>

<use href="#rainSymbol" width="27.47px" />
</svg>