<?xml version="1.0" encoding="utf-8"?>
<!-- Generator: Adobe Illustrator 25.2.0, SVG Export Plug-In . SVG Version: 6.00 Build 0)  -->
<svg version="1.1" id="Layer_1" xmlns="http://www.w3.org/2000/svg" xmlns:xlink="http://www.w3.org/1999/xlink" x="0px" y="0px"
	 viewBox="0 0 27.5 22.2" style="enable-background:new 0 0 27.5 22.2;" xml:space="preserve" width="64px">
<style type="text/css">
	.st0{fill:none;stroke-linecap:round;}
	.st1{fill:none;stroke:#94FFDF;stroke-linecap:round;}
</style>
<script>
</script>
<symbol id="rainSymbol-1" viewBox="0 0 27.5 22.2">
	<path vector-effect="non-scaling-stroke" stroke-linecap="round" class="st0 animate rainSymbol-1" d="M11,19c0,0,4.8-5.7,10.5-2"/>
</symbol>

<symbol id="rainSymbol-2" viewBox="0 0 27.5 22.2">
	<path vector-effect="non-scaling-stroke" stroke-linecap="round" class="st0 animate rainSymbol-2" d="M11,19c0,0-5-3-9,2"/>
</symbol>

<symbol id="rainSymbol-3" viewBox="0 0 27.5 22.2">
	<path vector-effect="non-scaling-stroke" stroke-linecap="round" class="st0 animate rainSymbol-3" d="M11,19c0,0,4.9-3.3,7.7,1.7"/>
</symbol>

<symbol id="rainSymbol-4" viewBox="0 0 27.5 22.2">
	<path vector-effect="non-scaling-stroke" stroke-linecap="round" class="st0 animate rainSymbol-4" d="M10.8,18.4c0,0-2.8-5.1-8.8-2.9"/>
</symbol>

<symbol id="rainSymbol-5" viewBox="0 0 27.5 22.2">
	<path id="rainSymbol-5-path" vector-effect="non-scaling-stroke" stroke="black" stroke-dasharray="24, 44" stroke-dashoffset="92" stroke-linecap="round" class="st0 animate rainSymbol-5" d="M17,0.8c-2.1,6-4.1,11.7-6.1,17.6">
		<animate id="rainSymbol-5-path-animate" attributeName="stroke-dashoffset" from="92" to="24" begin="0s" dur="1.2s" repeatCount="indefinite" />
	</path>
</symbol>

<g id="rainFragment" viewBox="0 0 27.5 22.2" >
	<path id="rainSymbol-5-path" vector-effect="non-scaling-stroke" stroke-dasharray="2, 19" stroke-dashoffset="21" stroke-linecap="round" class="st0 animate rainSymbol-5" d="M17,0.8c-2.1,6-4.1,11.7-6.1,17.6">
		<animate attributeName="stroke-dashoffset" from="23" to="2" begin="0s" dur="1.2s" repeatCount="indefinite" />
	</path>
	<path vector-effect="non-scaling-stroke" stroke-linecap="round" class="st0 animate rainSymbol-4" d="M10.8,18.4c0,0-2.8-5.1-8.8-2.9">
		<animate attributeName="stroke-dashoffset" from="23" to="2" begin="0.9s" dur="1.2s" repeatCount="indefinite" />
	</path>
	<path vector-effect="non-scaling-stroke" stroke-linecap="round" class="st0 animate rainSymbol-3" d="M11,19c0,0,4.9-3.3,7.7,1.7">
		<animate attributeName="stroke-dashoffset" from="23" to="2" begin="0.9s" dur="1.2s" repeatCount="indefinite" />
	</path>
	<path vector-effect="non-scaling-stroke" stroke-linecap="round" class="st0 animate rainSymbol-2" d="M11,19c0,0-5-3-9,2">
		<animate attributeName="stroke-dashoffset" from="23" to="2" begin="0.9s" dur="1.2s" repeatCount="indefinite" />
	</path>
	<path vector-effect="non-scaling-stroke" stroke-linecap="round" class="st0 animate rainSymbol-1" d="M11,19c0,0,4.8-5.7,10.5-2">
		<animate attributeName="stroke-dashoffset" from="23" to="2" begin="0.9s" dur="1.2s" repeatCount="indefinite" />
	</path>

</g>

<use href="#rainSymbol-5-path" >
</use>


</svg>
